<svg width="897" height="1024" viewBox="0 0 897 1024" fill="none" xmlns="http://www.w3.org/2000/svg">
<g clip-path="url(#clip0_1_123)">
<rect width="897" height="1024" fill="white"/>
<line x1="0.5" y1="80" x2="0.499955" y2="1024" stroke="#E0E0E0"/>
<line x1="897" y1="80.5" y2="80.5" stroke="#E0E0E0"/>
<rect x="79.0001" y="196" width="188" height="37" rx="12" fill="#F1F1F1"/>
<path d="M100.131 209.818H101.364V217.097C101.364 217.746 101.244 218.298 101.006 218.752C100.767 219.206 100.431 219.551 99.9965 219.786C99.5623 220.022 99.0503 220.139 98.4603 220.139C97.9035 220.139 97.408 220.038 96.9738 219.836C96.5396 219.63 96.1982 219.339 95.9496 218.961C95.7011 218.583 95.5768 218.134 95.5768 217.614H96.7898C96.7898 217.902 96.8611 218.154 97.0036 218.369C97.1494 218.581 97.3483 218.747 97.6002 218.866C97.8521 218.986 98.1388 219.045 98.4603 219.045C98.8149 219.045 99.1165 218.971 99.3651 218.822C99.6137 218.673 99.8026 218.454 99.9319 218.165C100.064 217.874 100.131 217.518 100.131 217.097V209.818ZM108.488 216.878V212.364H109.661V220H108.488V218.707H108.408C108.229 219.095 107.951 219.425 107.573 219.697C107.195 219.965 106.718 220.099 106.141 220.099C105.664 220.099 105.24 219.995 104.869 219.786C104.497 219.574 104.206 219.256 103.994 218.832C103.782 218.404 103.675 217.866 103.675 217.216V212.364H104.849V217.136C104.849 217.693 105.005 218.137 105.316 218.469C105.631 218.8 106.032 218.966 106.519 218.966C106.811 218.966 107.108 218.891 107.409 218.742C107.714 218.593 107.969 218.364 108.175 218.056C108.384 217.748 108.488 217.355 108.488 216.878ZM117.219 214.074L116.165 214.372C116.099 214.196 116.001 214.026 115.872 213.86C115.746 213.691 115.574 213.552 115.355 213.442C115.136 213.333 114.856 213.278 114.515 213.278C114.047 213.278 113.658 213.386 113.346 213.602C113.038 213.814 112.884 214.084 112.884 214.412C112.884 214.704 112.99 214.934 113.202 215.103C113.414 215.272 113.746 215.413 114.197 215.526L115.33 215.804C116.013 215.97 116.522 216.223 116.856 216.565C117.191 216.903 117.359 217.339 117.359 217.872C117.359 218.31 117.233 218.701 116.981 219.045C116.732 219.39 116.384 219.662 115.937 219.861C115.489 220.06 114.969 220.159 114.376 220.159C113.597 220.159 112.952 219.99 112.442 219.652C111.931 219.314 111.608 218.82 111.472 218.17L112.586 217.892C112.692 218.303 112.892 218.611 113.187 218.817C113.486 219.022 113.875 219.125 114.356 219.125C114.903 219.125 115.337 219.009 115.658 218.777C115.983 218.542 116.145 218.26 116.145 217.932C116.145 217.667 116.053 217.445 115.867 217.266C115.681 217.083 115.396 216.947 115.012 216.858L113.739 216.56C113.04 216.394 112.526 216.137 112.198 215.789C111.873 215.438 111.711 214.999 111.711 214.472C111.711 214.041 111.832 213.66 112.074 213.328C112.319 212.997 112.652 212.737 113.073 212.548C113.497 212.359 113.978 212.264 114.515 212.264C115.27 212.264 115.864 212.43 116.295 212.761C116.729 213.093 117.037 213.53 117.219 214.074ZM122.446 212.364V213.358H118.488V212.364H122.446ZM119.642 210.534H120.815V217.812C120.815 218.144 120.863 218.393 120.959 218.558C121.059 218.721 121.185 218.83 121.337 218.886C121.493 218.939 121.657 218.966 121.829 218.966C121.959 218.966 122.065 218.959 122.147 218.946C122.23 218.929 122.297 218.916 122.346 218.906L122.585 219.96C122.505 219.99 122.394 220.02 122.252 220.05C122.109 220.083 121.929 220.099 121.71 220.099C121.378 220.099 121.054 220.028 120.736 219.886C120.421 219.743 120.159 219.526 119.95 219.234C119.744 218.943 119.642 218.575 119.642 218.131V210.534ZM128.148 220V212.364H129.321V220H128.148ZM128.745 211.091C128.516 211.091 128.319 211.013 128.153 210.857C127.991 210.701 127.91 210.514 127.91 210.295C127.91 210.077 127.991 209.889 128.153 209.734C128.319 209.578 128.516 209.5 128.745 209.5C128.973 209.5 129.169 209.578 129.331 209.734C129.497 209.889 129.58 210.077 129.58 210.295C129.58 210.514 129.497 210.701 129.331 210.857C129.169 211.013 128.973 211.091 128.745 211.091ZM134.354 220.159C133.718 220.159 133.156 219.998 132.669 219.677C132.181 219.352 131.8 218.895 131.525 218.305C131.25 217.711 131.112 217.01 131.112 216.202C131.112 215.4 131.25 214.704 131.525 214.114C131.8 213.524 132.183 213.068 132.674 212.746C133.164 212.425 133.731 212.264 134.374 212.264C134.871 212.264 135.264 212.347 135.552 212.513C135.844 212.675 136.066 212.861 136.218 213.07C136.374 213.275 136.495 213.444 136.581 213.577H136.681V209.818H137.854V220H136.72V218.827H136.581C136.495 218.966 136.372 219.142 136.213 219.354C136.054 219.562 135.827 219.75 135.532 219.915C135.237 220.078 134.844 220.159 134.354 220.159ZM134.513 219.105C134.984 219.105 135.381 218.982 135.706 218.737C136.031 218.489 136.278 218.146 136.447 217.708C136.616 217.267 136.701 216.759 136.701 216.182C136.701 215.612 136.618 215.113 136.452 214.685C136.286 214.254 136.041 213.92 135.716 213.681C135.391 213.439 134.99 213.318 134.513 213.318C134.016 213.318 133.602 213.446 133.27 213.701C132.942 213.953 132.695 214.296 132.529 214.73C132.367 215.161 132.286 215.645 132.286 216.182C132.286 216.725 132.369 217.219 132.534 217.663C132.703 218.104 132.952 218.455 133.28 218.717C133.612 218.976 134.022 219.105 134.513 219.105ZM143.367 220.159C142.632 220.159 141.997 219.997 141.463 219.672C140.933 219.344 140.524 218.886 140.235 218.3C139.95 217.71 139.808 217.024 139.808 216.241C139.808 215.459 139.95 214.77 140.235 214.173C140.524 213.573 140.925 213.106 141.438 212.771C141.955 212.433 142.559 212.264 143.248 212.264C143.646 212.264 144.039 212.33 144.426 212.463C144.814 212.596 145.167 212.811 145.485 213.109C145.804 213.404 146.057 213.795 146.246 214.283C146.435 214.77 146.529 215.37 146.529 216.082V216.58H140.643V215.565H145.336C145.336 215.134 145.25 214.75 145.078 214.412C144.909 214.074 144.667 213.807 144.352 213.612C144.04 213.416 143.672 213.318 143.248 213.318C142.781 213.318 142.376 213.434 142.035 213.666C141.697 213.895 141.437 214.193 141.255 214.561C141.072 214.929 140.981 215.323 140.981 215.744V216.42C140.981 216.997 141.08 217.486 141.279 217.887C141.482 218.285 141.762 218.588 142.12 218.797C142.478 219.002 142.893 219.105 143.367 219.105C143.676 219.105 143.954 219.062 144.203 218.976C144.455 218.886 144.672 218.754 144.854 218.578C145.036 218.399 145.177 218.177 145.277 217.912L146.41 218.23C146.291 218.615 146.09 218.953 145.808 219.244C145.527 219.533 145.179 219.758 144.764 219.92C144.35 220.08 143.884 220.159 143.367 220.159ZM150.561 220.179C150.077 220.179 149.638 220.088 149.244 219.906C148.849 219.72 148.536 219.453 148.304 219.105C148.072 218.754 147.956 218.33 147.956 217.832C147.956 217.395 148.042 217.04 148.215 216.768C148.387 216.493 148.617 216.278 148.906 216.122C149.194 215.966 149.512 215.85 149.86 215.774C150.212 215.695 150.565 215.632 150.919 215.585C151.383 215.526 151.759 215.481 152.048 215.451C152.339 215.418 152.552 215.363 152.684 215.287C152.82 215.211 152.888 215.078 152.888 214.889V214.849C152.888 214.359 152.754 213.978 152.485 213.706C152.22 213.434 151.817 213.298 151.277 213.298C150.717 213.298 150.278 213.421 149.96 213.666C149.642 213.911 149.418 214.173 149.289 214.452L148.175 214.054C148.374 213.59 148.639 213.229 148.97 212.97C149.305 212.708 149.67 212.526 150.064 212.423C150.462 212.317 150.853 212.264 151.237 212.264C151.483 212.264 151.764 212.294 152.083 212.354C152.404 212.41 152.714 212.528 153.012 212.707C153.314 212.886 153.564 213.156 153.763 213.517C153.962 213.878 154.061 214.362 154.061 214.969V220H152.888V218.966H152.828C152.749 219.132 152.616 219.309 152.431 219.498C152.245 219.687 151.998 219.848 151.69 219.98C151.382 220.113 151.005 220.179 150.561 220.179ZM150.74 219.125C151.204 219.125 151.595 219.034 151.914 218.852C152.235 218.669 152.477 218.434 152.639 218.146C152.805 217.857 152.888 217.554 152.888 217.236V216.162C152.838 216.222 152.729 216.276 152.56 216.326C152.394 216.372 152.202 216.414 151.983 216.45C151.768 216.483 151.557 216.513 151.352 216.54C151.15 216.563 150.986 216.583 150.86 216.599C150.555 216.639 150.27 216.704 150.005 216.793C149.743 216.879 149.531 217.01 149.368 217.186C149.209 217.358 149.13 217.594 149.13 217.892C149.13 218.3 149.28 218.608 149.582 218.817C149.887 219.022 150.273 219.125 150.74 219.125ZM161.612 214.074L160.558 214.372C160.492 214.196 160.394 214.026 160.265 213.86C160.139 213.691 159.966 213.552 159.748 213.442C159.529 213.333 159.249 213.278 158.907 213.278C158.44 213.278 158.051 213.386 157.739 213.602C157.431 213.814 157.277 214.084 157.277 214.412C157.277 214.704 157.383 214.934 157.595 215.103C157.807 215.272 158.138 215.413 158.589 215.526L159.723 215.804C160.405 215.97 160.914 216.223 161.249 216.565C161.584 216.903 161.751 217.339 161.751 217.872C161.751 218.31 161.625 218.701 161.373 219.045C161.125 219.39 160.777 219.662 160.329 219.861C159.882 220.06 159.361 220.159 158.768 220.159C157.989 220.159 157.345 219.99 156.834 219.652C156.324 219.314 156.001 218.82 155.865 218.17L156.978 217.892C157.084 218.303 157.285 218.611 157.58 218.817C157.878 219.022 158.268 219.125 158.748 219.125C159.295 219.125 159.729 219.009 160.051 218.777C160.376 218.542 160.538 218.26 160.538 217.932C160.538 217.667 160.445 217.445 160.26 217.266C160.074 217.083 159.789 216.947 159.405 216.858L158.132 216.56C157.432 216.394 156.919 216.137 156.591 215.789C156.266 215.438 156.103 214.999 156.103 214.472C156.103 214.041 156.224 213.66 156.466 213.328C156.712 212.997 157.045 212.737 157.466 212.548C157.89 212.359 158.37 212.264 158.907 212.264C159.663 212.264 160.256 212.43 160.687 212.761C161.121 213.093 161.43 213.53 161.612 214.074ZM170.855 212.364V213.358H166.739V212.364H170.855ZM167.972 220V211.31C167.972 210.872 168.075 210.508 168.28 210.216C168.486 209.924 168.752 209.705 169.08 209.56C169.409 209.414 169.755 209.341 170.12 209.341C170.408 209.341 170.643 209.364 170.826 209.411C171.008 209.457 171.144 209.5 171.233 209.54L170.895 210.554C170.835 210.534 170.753 210.509 170.647 210.479C170.544 210.45 170.408 210.435 170.239 210.435C169.851 210.435 169.571 210.532 169.399 210.728C169.23 210.924 169.145 211.21 169.145 211.588V220H167.972ZM175.288 220.159C174.598 220.159 173.993 219.995 173.473 219.667C172.956 219.339 172.551 218.88 172.26 218.29C171.971 217.7 171.827 217.01 171.827 216.222C171.827 215.426 171.971 214.732 172.26 214.138C172.551 213.545 172.956 213.085 173.473 212.756C173.993 212.428 174.598 212.264 175.288 212.264C175.977 212.264 176.58 212.428 177.097 212.756C177.618 213.085 178.022 213.545 178.31 214.138C178.602 214.732 178.748 215.426 178.748 216.222C178.748 217.01 178.602 217.7 178.31 218.29C178.022 218.88 177.618 219.339 177.097 219.667C176.58 219.995 175.977 220.159 175.288 220.159ZM175.288 219.105C175.811 219.105 176.242 218.971 176.58 218.702C176.918 218.434 177.168 218.081 177.331 217.643C177.493 217.206 177.574 216.732 177.574 216.222C177.574 215.711 177.493 215.236 177.331 214.795C177.168 214.354 176.918 213.998 176.58 213.726C176.242 213.454 175.811 213.318 175.288 213.318C174.764 213.318 174.333 213.454 173.995 213.726C173.657 213.998 173.407 214.354 173.244 214.795C173.082 215.236 173.001 215.711 173.001 216.222C173.001 216.732 173.082 217.206 173.244 217.643C173.407 218.081 173.657 218.434 173.995 218.702C174.333 218.971 174.764 219.105 175.288 219.105ZM180.539 220V212.364H181.672V213.517H181.752C181.891 213.139 182.143 212.833 182.508 212.597C182.872 212.362 183.283 212.244 183.74 212.244C183.827 212.244 183.934 212.246 184.064 212.249C184.193 212.253 184.291 212.258 184.357 212.264V213.457C184.317 213.447 184.226 213.433 184.084 213.413C183.944 213.389 183.797 213.378 183.641 213.378C183.27 213.378 182.938 213.456 182.647 213.612C182.358 213.764 182.13 213.976 181.961 214.248C181.795 214.516 181.712 214.823 181.712 215.168V220H180.539ZM190.859 215.406V220H189.685V212.364H190.819V213.557H190.918C191.097 213.169 191.369 212.857 191.734 212.622C192.098 212.384 192.569 212.264 193.145 212.264C193.663 212.264 194.115 212.37 194.503 212.582C194.891 212.791 195.192 213.109 195.408 213.537C195.623 213.961 195.731 214.498 195.731 215.148V220H194.557V215.227C194.557 214.627 194.402 214.16 194.09 213.825C193.779 213.487 193.351 213.318 192.807 213.318C192.433 213.318 192.098 213.399 191.803 213.562C191.511 213.724 191.281 213.961 191.112 214.273C190.943 214.584 190.859 214.962 190.859 215.406ZM201.076 220.159C200.341 220.159 199.706 219.997 199.172 219.672C198.642 219.344 198.233 218.886 197.944 218.3C197.659 217.71 197.517 217.024 197.517 216.241C197.517 215.459 197.659 214.77 197.944 214.173C198.233 213.573 198.634 213.106 199.147 212.771C199.664 212.433 200.268 212.264 200.957 212.264C201.355 212.264 201.748 212.33 202.135 212.463C202.523 212.596 202.876 212.811 203.194 213.109C203.512 213.404 203.766 213.795 203.955 214.283C204.144 214.77 204.238 215.37 204.238 216.082V216.58H198.352V215.565H203.045C203.045 215.134 202.959 214.75 202.787 214.412C202.618 214.074 202.376 213.807 202.061 213.612C201.749 213.416 201.381 213.318 200.957 213.318C200.49 213.318 200.085 213.434 199.744 213.666C199.406 213.895 199.146 214.193 198.963 214.561C198.781 214.929 198.69 215.323 198.69 215.744V216.42C198.69 216.997 198.789 217.486 198.988 217.887C199.191 218.285 199.471 218.588 199.829 218.797C200.186 219.002 200.602 219.105 201.076 219.105C201.385 219.105 201.663 219.062 201.912 218.976C202.164 218.886 202.381 218.754 202.563 218.578C202.745 218.399 202.886 218.177 202.986 217.912L204.119 218.23C204 218.615 203.799 218.953 203.517 219.244C203.236 219.533 202.888 219.758 202.473 219.92C202.059 220.08 201.593 220.159 201.076 220.159ZM206.693 212.364L208.523 215.486L210.352 212.364H211.704L209.239 216.182L211.704 220H210.352L208.523 217.037L206.693 220H205.341L207.767 216.182L205.341 212.364H206.693ZM216.7 212.364V213.358H212.742V212.364H216.7ZM213.896 210.534H215.069V217.812C215.069 218.144 215.117 218.393 215.213 218.558C215.313 218.721 215.439 218.83 215.591 218.886C215.747 218.939 215.911 218.966 216.083 218.966C216.212 218.966 216.318 218.959 216.401 218.946C216.484 218.929 216.55 218.916 216.6 218.906L216.839 219.96C216.759 219.99 216.648 220.02 216.506 220.05C216.363 220.083 216.183 220.099 215.964 220.099C215.632 220.099 215.308 220.028 214.989 219.886C214.675 219.743 214.413 219.526 214.204 219.234C213.998 218.943 213.896 218.575 213.896 218.131V210.534ZM225.723 212.364V213.358H221.766V212.364H225.723ZM222.919 210.534H224.092V217.812C224.092 218.144 224.14 218.393 224.237 218.558C224.336 218.721 224.462 218.83 224.614 218.886C224.77 218.939 224.934 218.966 225.107 218.966C225.236 218.966 225.342 218.959 225.425 218.946C225.508 218.929 225.574 218.916 225.624 218.906L225.862 219.96C225.783 219.99 225.672 220.02 225.529 220.05C225.387 220.083 225.206 220.099 224.987 220.099C224.656 220.099 224.331 220.028 224.013 219.886C223.698 219.743 223.436 219.526 223.227 219.234C223.022 218.943 222.919 218.575 222.919 218.131V210.534ZM227.488 220V212.364H228.661V220H227.488ZM228.085 211.091C227.856 211.091 227.659 211.013 227.493 210.857C227.331 210.701 227.249 210.514 227.249 210.295C227.249 210.077 227.331 209.889 227.493 209.734C227.659 209.578 227.856 209.5 228.085 209.5C228.313 209.5 228.509 209.578 228.671 209.734C228.837 209.889 228.92 210.077 228.92 210.295C228.92 210.514 228.837 210.701 228.671 210.857C228.509 211.013 228.313 211.091 228.085 211.091ZM230.81 220V212.364H231.944V213.557H232.043C232.202 213.149 232.459 212.833 232.814 212.607C233.168 212.379 233.594 212.264 234.092 212.264C234.595 212.264 235.015 212.379 235.349 212.607C235.687 212.833 235.951 213.149 236.14 213.557H236.219C236.415 213.162 236.708 212.849 237.099 212.617C237.49 212.382 237.959 212.264 238.506 212.264C239.189 212.264 239.748 212.478 240.182 212.906C240.616 213.33 240.833 213.991 240.833 214.889V220H239.66V214.889C239.66 214.326 239.506 213.923 239.197 213.681C238.889 213.439 238.526 213.318 238.109 213.318C237.572 213.318 237.156 213.481 236.861 213.805C236.566 214.127 236.418 214.535 236.418 215.028V220H235.225V214.77C235.225 214.336 235.084 213.986 234.802 213.721C234.521 213.452 234.158 213.318 233.714 213.318C233.409 213.318 233.124 213.399 232.859 213.562C232.597 213.724 232.385 213.95 232.222 214.238C232.063 214.523 231.984 214.853 231.984 215.227V220H230.81ZM246.18 220.159C245.444 220.159 244.809 219.997 244.276 219.672C243.746 219.344 243.336 218.886 243.048 218.3C242.763 217.71 242.62 217.024 242.62 216.241C242.62 215.459 242.763 214.77 243.048 214.173C243.336 213.573 243.737 213.106 244.251 212.771C244.768 212.433 245.371 212.264 246.061 212.264C246.458 212.264 246.851 212.33 247.239 212.463C247.627 212.596 247.98 212.811 248.298 213.109C248.616 213.404 248.87 213.795 249.058 214.283C249.247 214.77 249.342 215.37 249.342 216.082V216.58H243.455V215.565H248.149C248.149 215.134 248.063 214.75 247.89 214.412C247.721 214.074 247.479 213.807 247.164 213.612C246.853 213.416 246.485 213.318 246.061 213.318C245.593 213.318 245.189 213.434 244.848 213.666C244.509 213.895 244.249 214.193 244.067 214.561C243.885 214.929 243.794 215.323 243.794 215.744V216.42C243.794 216.997 243.893 217.486 244.092 217.887C244.294 218.285 244.574 218.588 244.932 218.797C245.29 219.002 245.706 219.105 246.18 219.105C246.488 219.105 246.767 219.062 247.015 218.976C247.267 218.886 247.484 218.754 247.666 218.578C247.849 218.399 247.99 218.177 248.089 217.912L249.223 218.23C249.103 218.615 248.903 218.953 248.621 219.244C248.339 219.533 247.991 219.758 247.577 219.92C247.163 220.08 246.697 220.159 246.18 220.159Z" fill="black"/>
<rect x="79.0001" y="243" width="200" height="37" rx="12" fill="#F1F1F1"/>
<path d="M97.466 256.818V267H96.233V256.818H97.466ZM100.813 256.818V257.713C100.813 257.985 100.763 258.275 100.664 258.583C100.568 258.888 100.425 259.185 100.236 259.473C100.051 259.758 99.8254 260.007 99.5603 260.219L98.9239 259.702C99.1327 259.403 99.3133 259.094 99.4658 258.772C99.6216 258.447 99.6995 258.101 99.6995 257.733V256.818H100.813ZM103.536 256.818V267H102.363V256.818H103.536ZM106.859 256.818V267H105.685V256.818H106.859ZM113.104 267V256.818H114.277V260.577H114.377C114.463 260.444 114.582 260.275 114.735 260.07C114.891 259.861 115.113 259.675 115.401 259.513C115.693 259.347 116.087 259.264 116.584 259.264C117.227 259.264 117.794 259.425 118.285 259.746C118.775 260.068 119.158 260.524 119.433 261.114C119.708 261.704 119.846 262.4 119.846 263.202C119.846 264.01 119.708 264.711 119.433 265.305C119.158 265.895 118.777 266.352 118.289 266.677C117.802 266.998 117.24 267.159 116.604 267.159C116.114 267.159 115.721 267.078 115.426 266.915C115.131 266.75 114.904 266.562 114.745 266.354C114.586 266.142 114.463 265.966 114.377 265.827H114.238V267H113.104ZM114.258 263.182C114.258 263.759 114.342 264.267 114.511 264.708C114.68 265.146 114.927 265.489 115.252 265.737C115.577 265.982 115.974 266.105 116.445 266.105C116.936 266.105 117.345 265.976 117.673 265.717C118.004 265.455 118.253 265.104 118.419 264.663C118.588 264.219 118.672 263.725 118.672 263.182C118.672 262.645 118.589 262.161 118.424 261.73C118.261 261.296 118.014 260.953 117.683 260.701C117.355 260.446 116.942 260.318 116.445 260.318C115.968 260.318 115.567 260.439 115.242 260.681C114.917 260.92 114.672 261.254 114.506 261.685C114.34 262.113 114.258 262.612 114.258 263.182ZM124.842 267.159C124.106 267.159 123.472 266.997 122.938 266.672C122.408 266.344 121.998 265.886 121.71 265.3C121.425 264.71 121.282 264.024 121.282 263.241C121.282 262.459 121.425 261.77 121.71 261.173C121.998 260.573 122.399 260.106 122.913 259.771C123.43 259.433 124.033 259.264 124.723 259.264C125.12 259.264 125.513 259.33 125.901 259.463C126.289 259.596 126.642 259.811 126.96 260.109C127.278 260.404 127.532 260.795 127.721 261.283C127.91 261.77 128.004 262.37 128.004 263.082V263.58H122.118V262.565H126.811C126.811 262.134 126.725 261.75 126.552 261.412C126.383 261.074 126.141 260.807 125.826 260.612C125.515 260.416 125.147 260.318 124.723 260.318C124.255 260.318 123.851 260.434 123.51 260.666C123.172 260.895 122.911 261.193 122.729 261.561C122.547 261.929 122.456 262.323 122.456 262.744V263.42C122.456 263.997 122.555 264.486 122.754 264.887C122.956 265.285 123.236 265.588 123.594 265.797C123.952 266.002 124.368 266.105 124.842 266.105C125.15 266.105 125.429 266.062 125.677 265.976C125.929 265.886 126.146 265.754 126.329 265.578C126.511 265.399 126.652 265.177 126.751 264.912L127.885 265.23C127.765 265.615 127.565 265.953 127.283 266.244C127.001 266.533 126.653 266.758 126.239 266.92C125.825 267.08 125.359 267.159 124.842 267.159ZM137.047 259.364V260.358H133.09V259.364H137.047ZM134.243 257.534H135.417V264.812C135.417 265.144 135.465 265.393 135.561 265.558C135.66 265.721 135.786 265.83 135.939 265.886C136.094 265.939 136.258 265.966 136.431 265.966C136.56 265.966 136.666 265.959 136.749 265.946C136.832 265.929 136.898 265.916 136.948 265.906L137.186 266.96C137.107 266.99 136.996 267.02 136.853 267.05C136.711 267.083 136.53 267.099 136.311 267.099C135.98 267.099 135.655 267.028 135.337 266.886C135.022 266.743 134.76 266.526 134.552 266.234C134.346 265.943 134.243 265.575 134.243 265.131V257.534ZM140.15 262.406V267H138.976V256.818H140.15V260.557H140.249C140.428 260.162 140.696 259.849 141.054 259.617C141.416 259.382 141.896 259.264 142.496 259.264C143.017 259.264 143.472 259.369 143.863 259.577C144.254 259.783 144.558 260.099 144.773 260.527C144.992 260.951 145.101 261.491 145.101 262.148V267H143.928V262.227C143.928 261.621 143.771 261.152 143.456 260.82C143.144 260.486 142.712 260.318 142.158 260.318C141.774 260.318 141.429 260.399 141.124 260.562C140.822 260.724 140.584 260.961 140.408 261.273C140.236 261.584 140.15 261.962 140.15 262.406ZM150.449 267.159C149.714 267.159 149.079 266.997 148.545 266.672C148.015 266.344 147.606 265.886 147.317 265.3C147.032 264.71 146.89 264.024 146.89 263.241C146.89 262.459 147.032 261.77 147.317 261.173C147.606 260.573 148.007 260.106 148.52 259.771C149.038 259.433 149.641 259.264 150.33 259.264C150.728 259.264 151.121 259.33 151.508 259.463C151.896 259.596 152.249 259.811 152.567 260.109C152.886 260.404 153.139 260.795 153.328 261.283C153.517 261.77 153.611 262.37 153.611 263.082V263.58H147.725V262.565H152.418C152.418 262.134 152.332 261.75 152.16 261.412C151.991 261.074 151.749 260.807 151.434 260.612C151.122 260.416 150.754 260.318 150.33 260.318C149.863 260.318 149.458 260.434 149.117 260.666C148.779 260.895 148.519 261.193 148.337 261.561C148.154 261.929 148.063 262.323 148.063 262.744V263.42C148.063 263.997 148.163 264.486 148.361 264.887C148.564 265.285 148.844 265.588 149.202 265.797C149.56 266.002 149.975 266.105 150.449 266.105C150.758 266.105 151.036 266.062 151.285 265.976C151.537 265.886 151.754 265.754 151.936 265.578C152.118 265.399 152.259 265.177 152.359 264.912L153.492 265.23C153.373 265.615 153.172 265.953 152.891 266.244C152.609 266.533 152.261 266.758 151.846 266.92C151.432 267.08 150.967 267.159 150.449 267.159ZM155.396 267V259.364H156.53V260.517H156.609C156.748 260.139 157 259.833 157.365 259.597C157.73 259.362 158.141 259.244 158.598 259.244C158.684 259.244 158.792 259.246 158.921 259.249C159.05 259.253 159.148 259.258 159.214 259.264V260.457C159.175 260.447 159.083 260.433 158.941 260.413C158.802 260.389 158.654 260.378 158.498 260.378C158.127 260.378 157.796 260.456 157.504 260.612C157.216 260.764 156.987 260.976 156.818 261.248C156.652 261.516 156.569 261.823 156.569 262.168V267H155.396ZM163.574 267.159C162.839 267.159 162.204 266.997 161.67 266.672C161.14 266.344 160.731 265.886 160.442 265.3C160.157 264.71 160.015 264.024 160.015 263.241C160.015 262.459 160.157 261.77 160.442 261.173C160.731 260.573 161.132 260.106 161.645 259.771C162.163 259.433 162.766 259.264 163.455 259.264C163.853 259.264 164.246 259.33 164.633 259.463C165.021 259.596 165.374 259.811 165.692 260.109C166.011 260.404 166.264 260.795 166.453 261.283C166.642 261.77 166.736 262.37 166.736 263.082V263.58H160.85V262.565H165.543C165.543 262.134 165.457 261.75 165.285 261.412C165.116 261.074 164.874 260.807 164.559 260.612C164.247 260.416 163.879 260.318 163.455 260.318C162.988 260.318 162.583 260.434 162.242 260.666C161.904 260.895 161.644 261.193 161.462 261.561C161.279 261.929 161.188 262.323 161.188 262.744V263.42C161.188 263.997 161.288 264.486 161.486 264.887C161.689 265.285 161.969 265.588 162.327 265.797C162.685 266.002 163.1 266.105 163.574 266.105C163.883 266.105 164.161 266.062 164.41 265.976C164.662 265.886 164.879 265.754 165.061 265.578C165.243 265.399 165.384 265.177 165.484 264.912L166.617 265.23C166.498 265.615 166.297 265.953 166.016 266.244C165.734 266.533 165.386 266.758 164.971 266.92C164.557 267.08 164.092 267.159 163.574 267.159ZM172.459 267V259.364H173.632V267H172.459ZM173.055 258.091C172.827 258.091 172.629 258.013 172.464 257.857C172.301 257.701 172.22 257.514 172.22 257.295C172.22 257.077 172.301 256.889 172.464 256.734C172.629 256.578 172.827 256.5 173.055 256.5C173.284 256.5 173.48 256.578 173.642 256.734C173.808 256.889 173.891 257.077 173.891 257.295C173.891 257.514 173.808 257.701 173.642 257.857C173.48 258.013 173.284 258.091 173.055 258.091ZM176.954 262.406V267H175.781V259.364H176.914V260.557H177.014C177.193 260.169 177.465 259.857 177.829 259.622C178.194 259.384 178.664 259.264 179.241 259.264C179.758 259.264 180.211 259.37 180.598 259.582C180.986 259.791 181.288 260.109 181.503 260.537C181.719 260.961 181.826 261.498 181.826 262.148V267H180.653V262.227C180.653 261.627 180.497 261.16 180.186 260.825C179.874 260.487 179.447 260.318 178.903 260.318C178.529 260.318 178.194 260.399 177.899 260.562C177.607 260.724 177.377 260.961 177.208 261.273C177.039 261.584 176.954 261.962 176.954 262.406ZM189.081 262.406V267H187.908V259.364H189.041V260.557H189.141C189.32 260.169 189.592 259.857 189.956 259.622C190.321 259.384 190.791 259.264 191.368 259.264C191.885 259.264 192.338 259.37 192.725 259.582C193.113 259.791 193.415 260.109 193.63 260.537C193.846 260.961 193.953 261.498 193.953 262.148V267H192.78V262.227C192.78 261.627 192.624 261.16 192.313 260.825C192.001 260.487 191.574 260.318 191.03 260.318C190.656 260.318 190.321 260.399 190.026 260.562C189.734 260.724 189.504 260.961 189.335 261.273C189.166 261.584 189.081 261.962 189.081 262.406ZM199.299 267.159C198.563 267.159 197.929 266.997 197.395 266.672C196.865 266.344 196.455 265.886 196.167 265.3C195.882 264.71 195.739 264.024 195.739 263.241C195.739 262.459 195.882 261.77 196.167 261.173C196.455 260.573 196.856 260.106 197.37 259.771C197.887 259.433 198.49 259.264 199.18 259.264C199.577 259.264 199.97 259.33 200.358 259.463C200.746 259.596 201.099 259.811 201.417 260.109C201.735 260.404 201.989 260.795 202.178 261.283C202.367 261.77 202.461 262.37 202.461 263.082V263.58H196.575V262.565H201.268C201.268 262.134 201.182 261.75 201.009 261.412C200.84 261.074 200.598 260.807 200.283 260.612C199.972 260.416 199.604 260.318 199.18 260.318C198.712 260.318 198.308 260.434 197.967 260.666C197.629 260.895 197.368 261.193 197.186 261.561C197.004 261.929 196.913 262.323 196.913 262.744V263.42C196.913 263.997 197.012 264.486 197.211 264.887C197.413 265.285 197.693 265.588 198.051 265.797C198.409 266.002 198.825 266.105 199.299 266.105C199.607 266.105 199.886 266.062 200.134 265.976C200.386 265.886 200.603 265.754 200.786 265.578C200.968 265.399 201.109 265.177 201.208 264.912L202.342 265.23C202.222 265.615 202.022 265.953 201.74 266.244C201.458 266.533 201.11 266.758 200.696 266.92C200.282 267.08 199.816 267.159 199.299 267.159ZM204.916 259.364L206.745 262.486L208.575 259.364H209.927L207.461 263.182L209.927 267H208.575L206.745 264.037L204.916 267H203.563L205.99 263.182L203.563 259.364H204.916ZM214.922 259.364V260.358H210.965V259.364H214.922ZM212.118 257.534H213.292V264.812C213.292 265.144 213.34 265.393 213.436 265.558C213.535 265.721 213.661 265.83 213.814 265.886C213.969 265.939 214.133 265.966 214.306 265.966C214.435 265.966 214.541 265.959 214.624 265.946C214.707 265.929 214.773 265.916 214.823 265.906L215.061 266.96C214.982 266.99 214.871 267.02 214.728 267.05C214.586 267.083 214.405 267.099 214.186 267.099C213.855 267.099 213.53 267.028 213.212 266.886C212.897 266.743 212.635 266.526 212.427 266.234C212.221 265.943 212.118 265.575 212.118 265.131V257.534ZM220.605 267V266.105L223.966 262.426C224.36 261.995 224.685 261.621 224.94 261.303C225.195 260.981 225.384 260.679 225.507 260.398C225.633 260.113 225.696 259.814 225.696 259.503C225.696 259.145 225.61 258.835 225.437 258.573C225.268 258.311 225.036 258.109 224.741 257.967C224.446 257.824 224.115 257.753 223.747 257.753C223.356 257.753 223.014 257.834 222.723 257.996C222.434 258.156 222.211 258.379 222.052 258.668C221.896 258.956 221.818 259.294 221.818 259.682H220.645C220.645 259.085 220.782 258.562 221.057 258.111C221.332 257.66 221.707 257.309 222.181 257.057C222.658 256.805 223.193 256.679 223.787 256.679C224.383 256.679 224.912 256.805 225.373 257.057C225.833 257.309 226.195 257.648 226.456 258.076C226.718 258.504 226.849 258.979 226.849 259.503C226.849 259.877 226.781 260.244 226.645 260.602C226.513 260.956 226.281 261.352 225.949 261.79C225.621 262.224 225.165 262.754 224.582 263.381L222.295 265.827V265.906H227.028V267H220.605ZM233.039 267V259.364H234.172V260.557H234.272C234.431 260.149 234.688 259.833 235.042 259.607C235.397 259.379 235.823 259.264 236.32 259.264C236.824 259.264 237.243 259.379 237.578 259.607C237.916 259.833 238.179 260.149 238.368 260.557H238.448C238.643 260.162 238.937 259.849 239.328 259.617C239.719 259.382 240.188 259.264 240.735 259.264C241.418 259.264 241.976 259.478 242.41 259.906C242.844 260.33 243.061 260.991 243.061 261.889V267H241.888V261.889C241.888 261.326 241.734 260.923 241.426 260.681C241.118 260.439 240.755 260.318 240.337 260.318C239.8 260.318 239.384 260.481 239.089 260.805C238.794 261.127 238.647 261.535 238.647 262.028V267H237.454V261.77C237.454 261.336 237.313 260.986 237.031 260.721C236.749 260.452 236.386 260.318 235.942 260.318C235.637 260.318 235.352 260.399 235.087 260.562C234.825 260.724 234.613 260.95 234.451 261.238C234.292 261.523 234.212 261.853 234.212 262.227V267H233.039ZM245.207 267V259.364H246.38V267H245.207ZM245.803 258.091C245.575 258.091 245.377 258.013 245.212 257.857C245.049 257.701 244.968 257.514 244.968 257.295C244.968 257.077 245.049 256.889 245.212 256.734C245.377 256.578 245.575 256.5 245.803 256.5C246.032 256.5 246.228 256.578 246.39 256.734C246.556 256.889 246.639 257.077 246.639 257.295C246.639 257.514 246.556 257.701 246.39 257.857C246.228 258.013 246.032 258.091 245.803 258.091ZM249.702 262.406V267H248.529V259.364H249.663V260.557H249.762C249.941 260.169 250.213 259.857 250.577 259.622C250.942 259.384 251.413 259.264 251.989 259.264C252.506 259.264 252.959 259.37 253.346 259.582C253.734 259.791 254.036 260.109 254.251 260.537C254.467 260.961 254.574 261.498 254.574 262.148V267H253.401V262.227C253.401 261.627 253.245 261.16 252.934 260.825C252.622 260.487 252.195 260.318 251.651 260.318C251.277 260.318 250.942 260.399 250.647 260.562C250.355 260.724 250.125 260.961 249.956 261.273C249.787 261.584 249.702 261.962 249.702 262.406ZM262.128 261.074L261.074 261.372C261.007 261.196 260.91 261.026 260.78 260.86C260.654 260.691 260.482 260.552 260.263 260.442C260.044 260.333 259.764 260.278 259.423 260.278C258.956 260.278 258.566 260.386 258.255 260.602C257.946 260.814 257.792 261.084 257.792 261.412C257.792 261.704 257.898 261.934 258.111 262.103C258.323 262.272 258.654 262.413 259.105 262.526L260.238 262.804C260.921 262.97 261.43 263.223 261.765 263.565C262.099 263.903 262.267 264.339 262.267 264.872C262.267 265.31 262.141 265.701 261.889 266.045C261.64 266.39 261.292 266.662 260.845 266.861C260.397 267.06 259.877 267.159 259.284 267.159C258.505 267.159 257.86 266.99 257.35 266.652C256.839 266.314 256.516 265.82 256.38 265.17L257.494 264.892C257.6 265.303 257.801 265.611 258.096 265.817C258.394 266.022 258.783 266.125 259.264 266.125C259.811 266.125 260.245 266.009 260.566 265.777C260.891 265.542 261.054 265.26 261.054 264.932C261.054 264.667 260.961 264.445 260.775 264.266C260.59 264.083 260.305 263.947 259.92 263.858L258.647 263.56C257.948 263.394 257.434 263.137 257.106 262.789C256.781 262.438 256.619 261.999 256.619 261.472C256.619 261.041 256.74 260.66 256.982 260.328C257.227 259.997 257.56 259.737 257.981 259.548C258.405 259.359 258.886 259.264 259.423 259.264C260.179 259.264 260.772 259.43 261.203 259.761C261.637 260.093 261.945 260.53 262.128 261.074Z" fill="black"/>
<rect x="690" y="123" width="122" height="37" rx="12" fill="#F1F1F1"/>
<path d="M707.233 147V136.818H708.466V141.352H713.895V136.818H715.128V147H713.895V142.446H708.466V147H707.233ZM720.539 147.159C719.85 147.159 719.245 146.995 718.725 146.667C718.208 146.339 717.803 145.88 717.512 145.29C717.223 144.7 717.079 144.01 717.079 143.222C717.079 142.426 717.223 141.732 717.512 141.138C717.803 140.545 718.208 140.085 718.725 139.756C719.245 139.428 719.85 139.264 720.539 139.264C721.229 139.264 721.832 139.428 722.349 139.756C722.869 140.085 723.274 140.545 723.562 141.138C723.854 141.732 724 142.426 724 143.222C724 144.01 723.854 144.7 723.562 145.29C723.274 145.88 722.869 146.339 722.349 146.667C721.832 146.995 721.229 147.159 720.539 147.159ZM720.539 146.105C721.063 146.105 721.494 145.971 721.832 145.702C722.17 145.434 722.42 145.081 722.583 144.643C722.745 144.206 722.826 143.732 722.826 143.222C722.826 142.711 722.745 142.236 722.583 141.795C722.42 141.354 722.17 140.998 721.832 140.726C721.494 140.454 721.063 140.318 720.539 140.318C720.016 140.318 719.585 140.454 719.247 140.726C718.909 140.998 718.658 141.354 718.496 141.795C718.334 142.236 718.252 142.711 718.252 143.222C718.252 143.732 718.334 144.206 718.496 144.643C718.658 145.081 718.909 145.434 719.247 145.702C719.585 145.971 720.016 146.105 720.539 146.105ZM727.261 147L724.934 139.364H726.167L727.818 145.21H727.897L729.528 139.364H730.781L732.392 145.19H732.471L734.122 139.364H735.355L733.028 147H731.875L730.204 141.134H730.085L728.414 147H727.261ZM743.091 147.179C742.607 147.179 742.167 147.088 741.773 146.906C741.379 146.72 741.065 146.453 740.833 146.105C740.601 145.754 740.485 145.33 740.485 144.832C740.485 144.395 740.572 144.04 740.744 143.768C740.916 143.493 741.147 143.278 741.435 143.122C741.723 142.966 742.042 142.85 742.39 142.774C742.741 142.695 743.094 142.632 743.449 142.585C743.913 142.526 744.289 142.481 744.577 142.451C744.869 142.418 745.081 142.363 745.213 142.287C745.349 142.211 745.417 142.078 745.417 141.889V141.849C745.417 141.359 745.283 140.978 745.015 140.706C744.749 140.434 744.347 140.298 743.806 140.298C743.246 140.298 742.807 140.421 742.489 140.666C742.171 140.911 741.947 141.173 741.818 141.452L740.704 141.054C740.903 140.59 741.168 140.229 741.5 139.97C741.834 139.708 742.199 139.526 742.593 139.423C742.991 139.317 743.382 139.264 743.767 139.264C744.012 139.264 744.294 139.294 744.612 139.354C744.933 139.41 745.243 139.528 745.542 139.707C745.843 139.886 746.093 140.156 746.292 140.517C746.491 140.878 746.591 141.362 746.591 141.969V147H745.417V145.966H745.358C745.278 146.132 745.145 146.309 744.96 146.498C744.774 146.687 744.527 146.848 744.219 146.98C743.911 147.113 743.535 147.179 743.091 147.179ZM743.27 146.125C743.734 146.125 744.125 146.034 744.443 145.852C744.764 145.669 745.006 145.434 745.169 145.146C745.334 144.857 745.417 144.554 745.417 144.236V143.162C745.368 143.222 745.258 143.276 745.089 143.326C744.923 143.372 744.731 143.414 744.512 143.45C744.297 143.483 744.087 143.513 743.881 143.54C743.679 143.563 743.515 143.583 743.389 143.599C743.084 143.639 742.799 143.704 742.534 143.793C742.272 143.879 742.06 144.01 741.897 144.186C741.738 144.358 741.659 144.594 741.659 144.892C741.659 145.3 741.81 145.608 742.111 145.817C742.416 146.022 742.802 146.125 743.27 146.125ZM748.732 147V139.364H749.866V140.517H749.945C750.084 140.139 750.336 139.833 750.701 139.597C751.065 139.362 751.476 139.244 751.934 139.244C752.02 139.244 752.128 139.246 752.257 139.249C752.386 139.253 752.484 139.258 752.55 139.264V140.457C752.51 140.447 752.419 140.433 752.277 140.413C752.138 140.389 751.99 140.378 751.834 140.378C751.463 140.378 751.132 140.456 750.84 140.612C750.552 140.764 750.323 140.976 750.154 141.248C749.988 141.516 749.905 141.823 749.905 142.168V147H748.732ZM756.91 147.159C756.175 147.159 755.54 146.997 755.006 146.672C754.476 146.344 754.067 145.886 753.778 145.3C753.493 144.71 753.351 144.024 753.351 143.241C753.351 142.459 753.493 141.77 753.778 141.173C754.067 140.573 754.468 140.106 754.981 139.771C755.498 139.433 756.102 139.264 756.791 139.264C757.189 139.264 757.581 139.33 757.969 139.463C758.357 139.596 758.71 139.811 759.028 140.109C759.346 140.404 759.6 140.795 759.789 141.283C759.978 141.77 760.072 142.37 760.072 143.082V143.58H754.186V142.565H758.879C758.879 142.134 758.793 141.75 758.621 141.412C758.452 141.074 758.21 140.807 757.895 140.612C757.583 140.416 757.215 140.318 756.791 140.318C756.324 140.318 755.919 140.434 755.578 140.666C755.24 140.895 754.98 141.193 754.797 141.561C754.615 141.929 754.524 142.323 754.524 142.744V143.42C754.524 143.997 754.623 144.486 754.822 144.887C755.024 145.285 755.305 145.588 755.662 145.797C756.02 146.002 756.436 146.105 756.91 146.105C757.219 146.105 757.497 146.062 757.746 145.976C757.997 145.886 758.215 145.754 758.397 145.578C758.579 145.399 758.72 145.177 758.819 144.912L759.953 145.23C759.834 145.615 759.633 145.953 759.351 146.244C759.07 146.533 758.722 146.758 758.307 146.92C757.893 147.08 757.427 147.159 756.91 147.159ZM766.55 149.864C766.351 149.864 766.174 149.847 766.018 149.814C765.863 149.784 765.755 149.754 765.695 149.724L765.993 148.69C766.278 148.763 766.53 148.79 766.749 148.77C766.968 148.75 767.162 148.652 767.331 148.477C767.503 148.304 767.661 148.024 767.803 147.636L768.022 147.04L765.198 139.364H766.471L768.579 145.449H768.658L770.766 139.364H772.039L768.797 148.114C768.652 148.508 768.471 148.835 768.256 149.093C768.04 149.355 767.79 149.549 767.505 149.675C767.223 149.801 766.905 149.864 766.55 149.864ZM776.416 147.159C775.727 147.159 775.122 146.995 774.602 146.667C774.085 146.339 773.68 145.88 773.389 145.29C773.1 144.7 772.956 144.01 772.956 143.222C772.956 142.426 773.1 141.732 773.389 141.138C773.68 140.545 774.085 140.085 774.602 139.756C775.122 139.428 775.727 139.264 776.416 139.264C777.106 139.264 777.709 139.428 778.226 139.756C778.746 140.085 779.151 140.545 779.439 141.138C779.731 141.732 779.877 142.426 779.877 143.222C779.877 144.01 779.731 144.7 779.439 145.29C779.151 145.88 778.746 146.339 778.226 146.667C777.709 146.995 777.106 147.159 776.416 147.159ZM776.416 146.105C776.94 146.105 777.371 145.971 777.709 145.702C778.047 145.434 778.297 145.081 778.46 144.643C778.622 144.206 778.703 143.732 778.703 143.222C778.703 142.711 778.622 142.236 778.46 141.795C778.297 141.354 778.047 140.998 777.709 140.726C777.371 140.454 776.94 140.318 776.416 140.318C775.893 140.318 775.462 140.454 775.124 140.726C774.786 140.998 774.535 141.354 774.373 141.795C774.211 142.236 774.129 142.711 774.129 143.222C774.129 143.732 774.211 144.206 774.373 144.643C774.535 145.081 774.786 145.434 775.124 145.702C775.462 145.971 775.893 146.105 776.416 146.105ZM786.48 143.878V139.364H787.653V147H786.48V145.707H786.401C786.222 146.095 785.943 146.425 785.565 146.697C785.188 146.965 784.71 147.099 784.134 147.099C783.656 147.099 783.232 146.995 782.861 146.786C782.49 146.574 782.198 146.256 781.986 145.832C781.774 145.404 781.668 144.866 781.668 144.216V139.364H782.841V144.136C782.841 144.693 782.997 145.137 783.308 145.469C783.623 145.8 784.024 145.966 784.511 145.966C784.803 145.966 785.1 145.891 785.401 145.742C785.706 145.593 785.961 145.364 786.167 145.056C786.376 144.748 786.48 144.355 786.48 143.878ZM791.334 144.136V144.077C791.34 143.444 791.407 142.94 791.532 142.565C791.658 142.191 791.837 141.888 792.069 141.656C792.301 141.424 792.58 141.21 792.905 141.014C793.1 140.895 793.276 140.754 793.432 140.592C793.587 140.426 793.71 140.235 793.8 140.02C793.892 139.804 793.939 139.566 793.939 139.304C793.939 138.979 793.863 138.697 793.71 138.459C793.558 138.22 793.354 138.036 793.099 137.907C792.843 137.778 792.56 137.713 792.248 137.713C791.977 137.713 791.715 137.769 791.463 137.882C791.211 137.995 791.001 138.172 790.831 138.414C790.662 138.656 790.565 138.973 790.538 139.364H789.285C789.312 138.8 789.458 138.318 789.723 137.917C789.991 137.516 790.344 137.209 790.782 136.997C791.223 136.785 791.711 136.679 792.248 136.679C792.832 136.679 793.339 136.795 793.77 137.027C794.204 137.259 794.539 137.577 794.774 137.982C795.013 138.386 795.132 138.847 795.132 139.364C795.132 139.728 795.076 140.058 794.963 140.353C794.854 140.648 794.694 140.911 794.486 141.143C794.28 141.375 794.032 141.581 793.74 141.76C793.448 141.942 793.215 142.134 793.039 142.337C792.863 142.536 792.736 142.772 792.656 143.048C792.577 143.323 792.533 143.666 792.527 144.077V144.136H791.334ZM791.97 147.08C791.725 147.08 791.514 146.992 791.339 146.816C791.163 146.64 791.075 146.43 791.075 146.185C791.075 145.939 791.163 145.729 791.339 145.553C791.514 145.378 791.725 145.29 791.97 145.29C792.215 145.29 792.426 145.378 792.601 145.553C792.777 145.729 792.865 145.939 792.865 146.185C792.865 146.347 792.823 146.496 792.741 146.632C792.661 146.768 792.553 146.877 792.417 146.96C792.285 147.04 792.136 147.08 791.97 147.08Z" fill="#0F0F0F"/>
<rect x="693" y="311" width="119" height="37" rx="12" fill="#F1F1F1"/>
<path d="M711.804 335L709.477 327.364H710.71L712.361 333.21H712.44L714.071 327.364H715.324L716.935 333.19H717.014L718.665 327.364H719.898L717.571 335H716.418L714.747 329.134H714.628L712.957 335H711.804ZM724.291 335.159C723.602 335.159 722.997 334.995 722.477 334.667C721.96 334.339 721.555 333.88 721.264 333.29C720.975 332.7 720.831 332.01 720.831 331.222C720.831 330.426 720.975 329.732 721.264 329.138C721.555 328.545 721.96 328.085 722.477 327.756C722.997 327.428 723.602 327.264 724.291 327.264C724.981 327.264 725.584 327.428 726.101 327.756C726.621 328.085 727.026 328.545 727.314 329.138C727.606 329.732 727.752 330.426 727.752 331.222C727.752 332.01 727.606 332.7 727.314 333.29C727.026 333.88 726.621 334.339 726.101 334.667C725.584 334.995 724.981 335.159 724.291 335.159ZM724.291 334.105C724.815 334.105 725.246 333.971 725.584 333.702C725.922 333.434 726.172 333.081 726.335 332.643C726.497 332.206 726.578 331.732 726.578 331.222C726.578 330.711 726.497 330.236 726.335 329.795C726.172 329.354 725.922 328.998 725.584 328.726C725.246 328.454 724.815 328.318 724.291 328.318C723.768 328.318 723.337 328.454 722.999 328.726C722.661 328.998 722.41 329.354 722.248 329.795C722.086 330.236 722.004 330.711 722.004 331.222C722.004 331.732 722.086 332.206 722.248 332.643C722.41 333.081 722.661 333.434 722.999 333.702C723.337 333.971 723.768 334.105 724.291 334.105ZM732.645 335.159C731.955 335.159 731.351 334.995 730.83 334.667C730.313 334.339 729.909 333.88 729.617 333.29C729.329 332.7 729.185 332.01 729.185 331.222C729.185 330.426 729.329 329.732 729.617 329.138C729.909 328.545 730.313 328.085 730.83 327.756C731.351 327.428 731.955 327.264 732.645 327.264C733.334 327.264 733.938 327.428 734.455 327.756C734.975 328.085 735.379 328.545 735.668 329.138C735.959 329.732 736.105 330.426 736.105 331.222C736.105 332.01 735.959 332.7 735.668 333.29C735.379 333.88 734.975 334.339 734.455 334.667C733.938 334.995 733.334 335.159 732.645 335.159ZM732.645 334.105C733.169 334.105 733.599 333.971 733.938 333.702C734.276 333.434 734.526 333.081 734.688 332.643C734.851 332.206 734.932 331.732 734.932 331.222C734.932 330.711 734.851 330.236 734.688 329.795C734.526 329.354 734.276 328.998 733.938 328.726C733.599 328.454 733.169 328.318 732.645 328.318C732.121 328.318 731.69 328.454 731.352 328.726C731.014 328.998 730.764 329.354 730.602 329.795C730.439 330.236 730.358 330.711 730.358 331.222C730.358 331.732 730.439 332.206 730.602 332.643C730.764 333.081 731.014 333.434 731.352 333.702C731.69 333.971 732.121 334.105 732.645 334.105ZM739.069 330.406V335H737.896V324.818H739.069V328.557H739.169C739.348 328.162 739.616 327.849 739.974 327.617C740.336 327.382 740.816 327.264 741.416 327.264C741.936 327.264 742.392 327.369 742.783 327.577C743.174 327.783 743.478 328.099 743.693 328.527C743.912 328.951 744.021 329.491 744.021 330.148V335H742.848V330.227C742.848 329.621 742.69 329.152 742.376 328.82C742.064 328.486 741.631 328.318 741.078 328.318C740.693 328.318 740.349 328.399 740.044 328.562C739.742 328.724 739.504 328.961 739.328 329.273C739.156 329.584 739.069 329.962 739.069 330.406ZM749.27 335.159C748.58 335.159 747.976 334.995 747.455 334.667C746.938 334.339 746.534 333.88 746.242 333.29C745.954 332.7 745.81 332.01 745.81 331.222C745.81 330.426 745.954 329.732 746.242 329.138C746.534 328.545 746.938 328.085 747.455 327.756C747.976 327.428 748.58 327.264 749.27 327.264C749.959 327.264 750.563 327.428 751.08 327.756C751.6 328.085 752.004 328.545 752.293 329.138C752.584 329.732 752.73 330.426 752.73 331.222C752.73 332.01 752.584 332.7 752.293 333.29C752.004 333.88 751.6 334.339 751.08 334.667C750.563 334.995 749.959 335.159 749.27 335.159ZM749.27 334.105C749.794 334.105 750.224 333.971 750.562 333.702C750.901 333.434 751.151 333.081 751.313 332.643C751.476 332.206 751.557 331.732 751.557 331.222C751.557 330.711 751.476 330.236 751.313 329.795C751.151 329.354 750.901 328.998 750.562 328.726C750.224 328.454 749.794 328.318 749.27 328.318C748.746 328.318 748.315 328.454 747.977 328.726C747.639 328.998 747.389 329.354 747.227 329.795C747.064 330.236 746.983 330.711 746.983 331.222C746.983 331.732 747.064 332.206 747.227 332.643C747.389 333.081 747.639 333.434 747.977 333.702C748.315 333.971 748.746 334.105 749.27 334.105ZM757.623 335.159C756.934 335.159 756.329 334.995 755.809 334.667C755.292 334.339 754.887 333.88 754.596 333.29C754.307 332.7 754.163 332.01 754.163 331.222C754.163 330.426 754.307 329.732 754.596 329.138C754.887 328.545 755.292 328.085 755.809 327.756C756.329 327.428 756.934 327.264 757.623 327.264C758.313 327.264 758.916 327.428 759.433 327.756C759.953 328.085 760.358 328.545 760.646 329.138C760.938 329.732 761.084 330.426 761.084 331.222C761.084 332.01 760.938 332.7 760.646 333.29C760.358 333.88 759.953 334.339 759.433 334.667C758.916 334.995 758.313 335.159 757.623 335.159ZM757.623 334.105C758.147 334.105 758.578 333.971 758.916 333.702C759.254 333.434 759.504 333.081 759.667 332.643C759.829 332.206 759.91 331.732 759.91 331.222C759.91 330.711 759.829 330.236 759.667 329.795C759.504 329.354 759.254 328.998 758.916 328.726C758.578 328.454 758.147 328.318 757.623 328.318C757.1 328.318 756.669 328.454 756.331 328.726C755.993 328.998 755.742 329.354 755.58 329.795C755.418 330.236 755.336 330.711 755.336 331.222C755.336 331.732 755.418 332.206 755.58 332.643C755.742 333.081 755.993 333.434 756.331 333.702C756.669 333.971 757.1 334.105 757.623 334.105ZM765.977 335.159C765.288 335.159 764.683 334.995 764.162 334.667C763.645 334.339 763.241 333.88 762.949 333.29C762.661 332.7 762.517 332.01 762.517 331.222C762.517 330.426 762.661 329.732 762.949 329.138C763.241 328.545 763.645 328.085 764.162 327.756C764.683 327.428 765.288 327.264 765.977 327.264C766.666 327.264 767.27 327.428 767.787 327.756C768.307 328.085 768.711 328.545 769 329.138C769.291 329.732 769.437 330.426 769.437 331.222C769.437 332.01 769.291 332.7 769 333.29C768.711 333.88 768.307 334.339 767.787 334.667C767.27 334.995 766.666 335.159 765.977 335.159ZM765.977 334.105C766.501 334.105 766.931 333.971 767.27 333.702C767.608 333.434 767.858 333.081 768.02 332.643C768.183 332.206 768.264 331.732 768.264 331.222C768.264 330.711 768.183 330.236 768.02 329.795C767.858 329.354 767.608 328.998 767.27 328.726C766.931 328.454 766.501 328.318 765.977 328.318C765.453 328.318 765.022 328.454 764.684 328.726C764.346 328.998 764.096 329.354 763.934 329.795C763.771 330.236 763.69 330.711 763.69 331.222C763.69 331.732 763.771 332.206 763.934 332.643C764.096 333.081 764.346 333.434 764.684 333.702C765.022 333.971 765.453 334.105 765.977 334.105ZM774.33 335.159C773.641 335.159 773.036 334.995 772.516 334.667C771.999 334.339 771.594 333.88 771.303 333.29C771.014 332.7 770.87 332.01 770.87 331.222C770.87 330.426 771.014 329.732 771.303 329.138C771.594 328.545 771.999 328.085 772.516 327.756C773.036 327.428 773.641 327.264 774.33 327.264C775.02 327.264 775.623 327.428 776.14 327.756C776.66 328.085 777.065 328.545 777.353 329.138C777.645 329.732 777.791 330.426 777.791 331.222C777.791 332.01 777.645 332.7 777.353 333.29C777.065 333.88 776.66 334.339 776.14 334.667C775.623 334.995 775.02 335.159 774.33 335.159ZM774.33 334.105C774.854 334.105 775.285 333.971 775.623 333.702C775.961 333.434 776.211 333.081 776.374 332.643C776.536 332.206 776.617 331.732 776.617 331.222C776.617 330.711 776.536 330.236 776.374 329.795C776.211 329.354 775.961 328.998 775.623 328.726C775.285 328.454 774.854 328.318 774.33 328.318C773.807 328.318 773.376 328.454 773.038 328.726C772.7 328.998 772.45 329.354 772.287 329.795C772.125 330.236 772.044 330.711 772.044 331.222C772.044 331.732 772.125 332.206 772.287 332.643C772.45 333.081 772.7 333.434 773.038 333.702C773.376 333.971 773.807 334.105 774.33 334.105ZM782.684 335.159C781.995 335.159 781.39 334.995 780.869 334.667C780.352 334.339 779.948 333.88 779.656 333.29C779.368 332.7 779.224 332.01 779.224 331.222C779.224 330.426 779.368 329.732 779.656 329.138C779.948 328.545 780.352 328.085 780.869 327.756C781.39 327.428 781.995 327.264 782.684 327.264C783.373 327.264 783.977 327.428 784.494 327.756C785.014 328.085 785.418 328.545 785.707 329.138C785.998 329.732 786.144 330.426 786.144 331.222C786.144 332.01 785.998 332.7 785.707 333.29C785.418 333.88 785.014 334.339 784.494 334.667C783.977 334.995 783.373 335.159 782.684 335.159ZM782.684 334.105C783.208 334.105 783.638 333.971 783.977 333.702C784.315 333.434 784.565 333.081 784.727 332.643C784.89 332.206 784.971 331.732 784.971 331.222C784.971 330.711 784.89 330.236 784.727 329.795C784.565 329.354 784.315 328.998 783.977 328.726C783.638 328.454 783.208 328.318 782.684 328.318C782.16 328.318 781.729 328.454 781.391 328.726C781.053 328.998 780.803 329.354 780.641 329.795C780.478 330.236 780.397 330.711 780.397 331.222C780.397 331.732 780.478 332.206 780.641 332.643C780.803 333.081 781.053 333.434 781.391 333.702C781.729 333.971 782.16 334.105 782.684 334.105ZM791.037 335.159C790.348 335.159 789.743 334.995 789.223 334.667C788.706 334.339 788.301 333.88 788.01 333.29C787.721 332.7 787.577 332.01 787.577 331.222C787.577 330.426 787.721 329.732 788.01 329.138C788.301 328.545 788.706 328.085 789.223 327.756C789.743 327.428 790.348 327.264 791.037 327.264C791.727 327.264 792.33 327.428 792.847 327.756C793.367 328.085 793.772 328.545 794.06 329.138C794.352 329.732 794.498 330.426 794.498 331.222C794.498 332.01 794.352 332.7 794.06 333.29C793.772 333.88 793.367 334.339 792.847 334.667C792.33 334.995 791.727 335.159 791.037 335.159ZM791.037 334.105C791.561 334.105 791.992 333.971 792.33 333.702C792.668 333.434 792.918 333.081 793.081 332.643C793.243 332.206 793.324 331.732 793.324 331.222C793.324 330.711 793.243 330.236 793.081 329.795C792.918 329.354 792.668 328.998 792.33 328.726C791.992 328.454 791.561 328.318 791.037 328.318C790.514 328.318 790.083 328.454 789.745 328.726C789.407 328.998 789.157 329.354 788.994 329.795C788.832 330.236 788.751 330.711 788.751 331.222C788.751 331.732 788.832 332.206 788.994 332.643C789.157 333.081 789.407 333.434 789.745 333.702C790.083 333.971 790.514 334.105 791.037 334.105Z" fill="#1E1E1E"/>
<rect x="693" y="358" width="118" height="37" rx="12" fill="#F1F1F1"/>
<path d="M711.247 377.406V382H710.074V371.818H711.247V375.557H711.347C711.526 375.162 711.794 374.849 712.152 374.617C712.513 374.382 712.994 374.264 713.594 374.264C714.114 374.264 714.57 374.369 714.961 374.577C715.352 374.783 715.655 375.099 715.871 375.527C716.089 375.951 716.199 376.491 716.199 377.148V382H715.026V377.227C715.026 376.621 714.868 376.152 714.553 375.82C714.242 375.486 713.809 375.318 713.256 375.318C712.871 375.318 712.527 375.399 712.222 375.562C711.92 375.724 711.681 375.961 711.506 376.273C711.333 376.584 711.247 376.962 711.247 377.406ZM720.593 382.179C720.109 382.179 719.669 382.088 719.275 381.906C718.881 381.72 718.567 381.453 718.335 381.105C718.103 380.754 717.987 380.33 717.987 379.832C717.987 379.395 718.074 379.04 718.246 378.768C718.418 378.493 718.649 378.278 718.937 378.122C719.225 377.966 719.544 377.85 719.892 377.774C720.243 377.695 720.596 377.632 720.95 377.585C721.414 377.526 721.791 377.481 722.079 377.451C722.371 377.418 722.583 377.363 722.715 377.287C722.851 377.211 722.919 377.078 722.919 376.889V376.849C722.919 376.359 722.785 375.978 722.517 375.706C722.251 375.434 721.849 375.298 721.308 375.298C720.748 375.298 720.309 375.421 719.991 375.666C719.673 375.911 719.449 376.173 719.32 376.452L718.206 376.054C718.405 375.59 718.67 375.229 719.002 374.97C719.336 374.708 719.701 374.526 720.095 374.423C720.493 374.317 720.884 374.264 721.269 374.264C721.514 374.264 721.796 374.294 722.114 374.354C722.435 374.41 722.745 374.528 723.044 374.707C723.345 374.886 723.595 375.156 723.794 375.517C723.993 375.878 724.093 376.362 724.093 376.969V382H722.919V380.966H722.86C722.78 381.132 722.647 381.309 722.462 381.498C722.276 381.687 722.029 381.848 721.721 381.98C721.413 382.113 721.037 382.179 720.593 382.179ZM720.771 381.125C721.235 381.125 721.627 381.034 721.945 380.852C722.266 380.669 722.508 380.434 722.671 380.146C722.836 379.857 722.919 379.554 722.919 379.236V378.162C722.869 378.222 722.76 378.276 722.591 378.326C722.425 378.372 722.233 378.414 722.014 378.45C721.799 378.483 721.588 378.513 721.383 378.54C721.181 378.563 721.017 378.583 720.891 378.599C720.586 378.639 720.301 378.704 720.036 378.793C719.774 378.879 719.562 379.01 719.399 379.186C719.24 379.358 719.161 379.594 719.161 379.892C719.161 380.3 719.311 380.608 719.613 380.817C719.918 381.022 720.304 381.125 720.771 381.125ZM727.407 377.406V382H726.234V371.818H727.407V375.557H727.507C727.686 375.162 727.954 374.849 728.312 374.617C728.673 374.382 729.154 374.264 729.754 374.264C730.274 374.264 730.73 374.369 731.121 374.577C731.512 374.783 731.815 375.099 732.031 375.527C732.25 375.951 732.359 376.491 732.359 377.148V382H731.186V377.227C731.186 376.621 731.028 376.152 730.713 375.82C730.402 375.486 729.969 375.318 729.416 375.318C729.031 375.318 728.687 375.399 728.382 375.562C728.08 375.724 727.842 375.961 727.666 376.273C727.493 376.584 727.407 376.962 727.407 377.406ZM736.753 382.179C736.269 382.179 735.83 382.088 735.435 381.906C735.041 381.72 734.728 381.453 734.496 381.105C734.264 380.754 734.148 380.33 734.148 379.832C734.148 379.395 734.234 379.04 734.406 378.768C734.578 378.493 734.809 378.278 735.097 378.122C735.385 377.966 735.704 377.85 736.052 377.774C736.403 377.695 736.756 377.632 737.111 377.585C737.575 377.526 737.951 377.481 738.239 377.451C738.531 377.418 738.743 377.363 738.876 377.287C739.011 377.211 739.079 377.078 739.079 376.889V376.849C739.079 376.359 738.945 375.978 738.677 375.706C738.412 375.434 738.009 375.298 737.469 375.298C736.908 375.298 736.469 375.421 736.151 375.666C735.833 375.911 735.609 376.173 735.48 376.452L734.366 376.054C734.565 375.59 734.83 375.229 735.162 374.97C735.497 374.708 735.861 374.526 736.256 374.423C736.653 374.317 737.044 374.264 737.429 374.264C737.674 374.264 737.956 374.294 738.274 374.354C738.595 374.41 738.905 374.528 739.204 374.707C739.505 374.886 739.756 375.156 739.954 375.517C740.153 375.878 740.253 376.362 740.253 376.969V382H739.079V380.966H739.02C738.94 381.132 738.808 381.309 738.622 381.498C738.436 381.687 738.189 381.848 737.881 381.98C737.573 382.113 737.197 382.179 736.753 382.179ZM736.932 381.125C737.396 381.125 737.787 381.034 738.105 380.852C738.426 380.669 738.668 380.434 738.831 380.146C738.997 379.857 739.079 379.554 739.079 379.236V378.162C739.03 378.222 738.92 378.276 738.751 378.326C738.586 378.372 738.393 378.414 738.175 378.45C737.959 378.483 737.749 378.513 737.543 378.54C737.341 378.563 737.177 378.583 737.051 378.599C736.746 378.639 736.461 378.704 736.196 378.793C735.934 378.879 735.722 379.01 735.559 379.186C735.4 379.358 735.321 379.594 735.321 379.892C735.321 380.3 735.472 380.608 735.773 380.817C736.078 381.022 736.464 381.125 736.932 381.125ZM749.434 382.159C748.745 382.159 748.14 381.995 747.619 381.667C747.102 381.339 746.698 380.88 746.406 380.29C746.118 379.7 745.974 379.01 745.974 378.222C745.974 377.426 746.118 376.732 746.406 376.138C746.698 375.545 747.102 375.085 747.619 374.756C748.14 374.428 748.745 374.264 749.434 374.264C750.123 374.264 750.727 374.428 751.244 374.756C751.764 375.085 752.168 375.545 752.457 376.138C752.748 376.732 752.894 377.426 752.894 378.222C752.894 379.01 752.748 379.7 752.457 380.29C752.168 380.88 751.764 381.339 751.244 381.667C750.727 381.995 750.123 382.159 749.434 382.159ZM749.434 381.105C749.958 381.105 750.388 380.971 750.727 380.702C751.065 380.434 751.315 380.081 751.477 379.643C751.64 379.206 751.721 378.732 751.721 378.222C751.721 377.711 751.64 377.236 751.477 376.795C751.315 376.354 751.065 375.998 750.727 375.726C750.388 375.454 749.958 375.318 749.434 375.318C748.91 375.318 748.479 375.454 748.141 375.726C747.803 375.998 747.553 376.354 747.391 376.795C747.228 377.236 747.147 377.711 747.147 378.222C747.147 378.732 747.228 379.206 747.391 379.643C747.553 380.081 747.803 380.434 748.141 380.702C748.479 380.971 748.91 381.105 749.434 381.105ZM755.858 377.406V382H754.685V371.818H755.858V375.557H755.958C756.137 375.162 756.405 374.849 756.763 374.617C757.125 374.382 757.605 374.264 758.205 374.264C758.725 374.264 759.181 374.369 759.572 374.577C759.963 374.783 760.267 375.099 760.482 375.527C760.701 375.951 760.81 376.491 760.81 377.148V382H759.637V377.227C759.637 376.621 759.479 376.152 759.165 375.82C758.853 375.486 758.421 375.318 757.867 375.318C757.483 375.318 757.138 375.399 756.833 375.562C756.531 375.724 756.293 375.961 756.117 376.273C755.945 376.584 755.858 376.962 755.858 377.406ZM766.894 382V374.364H768.028V375.557H768.127C768.286 375.149 768.543 374.833 768.898 374.607C769.252 374.379 769.678 374.264 770.175 374.264C770.679 374.264 771.098 374.379 771.433 374.607C771.771 374.833 772.035 375.149 772.224 375.557H772.303C772.499 375.162 772.792 374.849 773.183 374.617C773.574 374.382 774.043 374.264 774.59 374.264C775.273 374.264 775.831 374.478 776.266 374.906C776.7 375.33 776.917 375.991 776.917 376.889V382H775.744V376.889C775.744 376.326 775.589 375.923 775.281 375.681C774.973 375.439 774.61 375.318 774.192 375.318C773.656 375.318 773.24 375.481 772.945 375.805C772.65 376.127 772.502 376.535 772.502 377.028V382H771.309V376.77C771.309 376.336 771.168 375.986 770.886 375.721C770.605 375.452 770.242 375.318 769.798 375.318C769.493 375.318 769.208 375.399 768.942 375.562C768.681 375.724 768.469 375.95 768.306 376.238C768.147 376.523 768.067 376.853 768.067 377.227V382H766.894ZM781.309 382.179C780.825 382.179 780.386 382.088 779.992 381.906C779.597 381.72 779.284 381.453 779.052 381.105C778.82 380.754 778.704 380.33 778.704 379.832C778.704 379.395 778.79 379.04 778.963 378.768C779.135 378.493 779.365 378.278 779.654 378.122C779.942 377.966 780.26 377.85 780.608 377.774C780.96 377.695 781.313 377.632 781.667 377.585C782.131 377.526 782.507 377.481 782.796 377.451C783.087 377.418 783.3 377.363 783.432 377.287C783.568 377.211 783.636 377.078 783.636 376.889V376.849C783.636 376.359 783.502 375.978 783.233 375.706C782.968 375.434 782.565 375.298 782.025 375.298C781.465 375.298 781.026 375.421 780.708 375.666C780.39 375.911 780.166 376.173 780.037 376.452L778.923 376.054C779.122 375.59 779.387 375.229 779.718 374.97C780.053 374.708 780.418 374.526 780.812 374.423C781.21 374.317 781.601 374.264 781.985 374.264C782.231 374.264 782.512 374.294 782.831 374.354C783.152 374.41 783.462 374.528 783.76 374.707C784.062 374.886 784.312 375.156 784.511 375.517C784.71 375.878 784.809 376.362 784.809 376.969V382H783.636V380.966H783.576C783.497 381.132 783.364 381.309 783.179 381.498C782.993 381.687 782.746 381.848 782.438 381.98C782.13 382.113 781.753 382.179 781.309 382.179ZM781.488 381.125C781.952 381.125 782.343 381.034 782.662 380.852C782.983 380.669 783.225 380.434 783.387 380.146C783.553 379.857 783.636 379.554 783.636 379.236V378.162C783.586 378.222 783.477 378.276 783.308 378.326C783.142 378.372 782.95 378.414 782.731 378.45C782.516 378.483 782.305 378.513 782.1 378.54C781.898 378.563 781.734 378.583 781.608 378.599C781.303 378.639 781.018 378.704 780.752 378.793C780.491 378.879 780.279 379.01 780.116 379.186C779.957 379.358 779.877 379.594 779.877 379.892C779.877 380.3 780.028 380.608 780.33 380.817C780.635 381.022 781.021 381.125 781.488 381.125ZM788.124 377.406V382H786.951V374.364H788.084V375.557H788.184C788.363 375.169 788.635 374.857 788.999 374.622C789.364 374.384 789.834 374.264 790.411 374.264C790.928 374.264 791.381 374.37 791.768 374.582C792.156 374.791 792.458 375.109 792.673 375.537C792.889 375.961 792.996 376.498 792.996 377.148V382H791.823V377.227C791.823 376.627 791.667 376.16 791.356 375.825C791.044 375.487 790.617 375.318 790.073 375.318C789.698 375.318 789.364 375.399 789.069 375.562C788.777 375.724 788.547 375.961 788.378 376.273C788.209 376.584 788.124 376.962 788.124 377.406Z" fill="#1E1E1E"/>
<rect x="643" y="405" width="168" height="37" rx="12" fill="#F1F1F1"/>
<path d="M660.233 429V418.818H661.466V423.352H666.895V418.818H668.128V429H666.895V424.446H661.466V429H660.233ZM672.684 429.179C672.2 429.179 671.761 429.088 671.367 428.906C670.972 428.72 670.659 428.453 670.427 428.105C670.195 427.754 670.079 427.33 670.079 426.832C670.079 426.395 670.165 426.04 670.338 425.768C670.51 425.493 670.74 425.278 671.029 425.122C671.317 424.966 671.635 424.85 671.983 424.774C672.335 424.695 672.688 424.632 673.042 424.585C673.506 424.526 673.882 424.481 674.171 424.451C674.462 424.418 674.675 424.363 674.807 424.287C674.943 424.211 675.011 424.078 675.011 423.889V423.849C675.011 423.359 674.877 422.978 674.608 422.706C674.343 422.434 673.94 422.298 673.4 422.298C672.84 422.298 672.401 422.421 672.083 422.666C671.765 422.911 671.541 423.173 671.412 423.452L670.298 423.054C670.497 422.59 670.762 422.229 671.093 421.97C671.428 421.708 671.793 421.526 672.187 421.423C672.585 421.317 672.976 421.264 673.36 421.264C673.606 421.264 673.887 421.294 674.206 421.354C674.527 421.41 674.837 421.528 675.135 421.707C675.437 421.886 675.687 422.156 675.886 422.517C676.085 422.878 676.184 423.362 676.184 423.969V429H675.011V427.966H674.951C674.872 428.132 674.739 428.309 674.554 428.498C674.368 428.687 674.121 428.848 673.813 428.98C673.505 429.113 673.128 429.179 672.684 429.179ZM672.863 428.125C673.327 428.125 673.718 428.034 674.037 427.852C674.358 427.669 674.6 427.434 674.762 427.146C674.928 426.857 675.011 426.554 675.011 426.236V425.162C674.961 425.222 674.852 425.276 674.683 425.326C674.517 425.372 674.325 425.414 674.106 425.45C673.891 425.483 673.68 425.513 673.475 425.54C673.273 425.563 673.109 425.583 672.983 425.599C672.678 425.639 672.393 425.704 672.127 425.793C671.866 425.879 671.654 426.01 671.491 426.186C671.332 426.358 671.252 426.594 671.252 426.892C671.252 427.3 671.403 427.608 671.705 427.817C672.01 428.022 672.396 428.125 672.863 428.125ZM679.499 424.406V429H678.326V418.818H679.499V422.557H679.599C679.778 422.162 680.046 421.849 680.404 421.617C680.765 421.382 681.246 421.264 681.846 421.264C682.366 421.264 682.822 421.369 683.213 421.577C683.604 421.783 683.907 422.099 684.123 422.527C684.341 422.951 684.451 423.491 684.451 424.148V429H683.278V424.227C683.278 423.621 683.12 423.152 682.805 422.82C682.494 422.486 682.061 422.318 681.508 422.318C681.123 422.318 680.778 422.399 680.474 422.562C680.172 422.724 679.933 422.961 679.758 423.273C679.585 423.584 679.499 423.962 679.499 424.406ZM688.844 429.179C688.361 429.179 687.921 429.088 687.527 428.906C687.133 428.72 686.819 428.453 686.587 428.105C686.355 427.754 686.239 427.33 686.239 426.832C686.239 426.395 686.326 426.04 686.498 425.768C686.67 425.493 686.901 425.278 687.189 425.122C687.477 424.966 687.795 424.85 688.143 424.774C688.495 424.695 688.848 424.632 689.202 424.585C689.666 424.526 690.043 424.481 690.331 424.451C690.623 424.418 690.835 424.363 690.967 424.287C691.103 424.211 691.171 424.078 691.171 423.889V423.849C691.171 423.359 691.037 422.978 690.768 422.706C690.503 422.434 690.101 422.298 689.56 422.298C689 422.298 688.561 422.421 688.243 422.666C687.925 422.911 687.701 423.173 687.572 423.452L686.458 423.054C686.657 422.59 686.922 422.229 687.254 421.97C687.588 421.708 687.953 421.526 688.347 421.423C688.745 421.317 689.136 421.264 689.521 421.264C689.766 421.264 690.048 421.294 690.366 421.354C690.687 421.41 690.997 421.528 691.295 421.707C691.597 421.886 691.847 422.156 692.046 422.517C692.245 422.878 692.344 423.362 692.344 423.969V429H691.171V427.966H691.112C691.032 428.132 690.899 428.309 690.714 428.498C690.528 428.687 690.281 428.848 689.973 428.98C689.665 429.113 689.289 429.179 688.844 429.179ZM689.023 428.125C689.487 428.125 689.879 428.034 690.197 427.852C690.518 427.669 690.76 427.434 690.923 427.146C691.088 426.857 691.171 426.554 691.171 426.236V425.162C691.121 425.222 691.012 425.276 690.843 425.326C690.677 425.372 690.485 425.414 690.266 425.45C690.051 425.483 689.84 425.513 689.635 425.54C689.433 425.563 689.269 425.583 689.143 425.599C688.838 425.639 688.553 425.704 688.288 425.793C688.026 425.879 687.814 426.01 687.651 426.186C687.492 426.358 687.413 426.594 687.413 426.892C687.413 427.3 687.563 427.608 687.865 427.817C688.17 428.022 688.556 428.125 689.023 428.125ZM701.744 421.364V422.358H697.787V421.364H701.744ZM698.941 419.534H700.114V426.812C700.114 427.144 700.162 427.393 700.258 427.558C700.357 427.721 700.483 427.83 700.636 427.886C700.792 427.939 700.956 427.966 701.128 427.966C701.257 427.966 701.363 427.959 701.446 427.946C701.529 427.929 701.595 427.916 701.645 427.906L701.884 428.96C701.804 428.99 701.693 429.02 701.551 429.05C701.408 429.083 701.227 429.099 701.009 429.099C700.677 429.099 700.352 429.028 700.034 428.886C699.719 428.743 699.458 428.526 699.249 428.234C699.043 427.943 698.941 427.575 698.941 427.131V419.534ZM704.847 424.406V429H703.673V418.818H704.847V422.557H704.946C705.125 422.162 705.394 421.849 705.752 421.617C706.113 421.382 706.593 421.264 707.193 421.264C707.714 421.264 708.169 421.369 708.561 421.577C708.952 421.783 709.255 422.099 709.47 422.527C709.689 422.951 709.798 423.491 709.798 424.148V429H708.625V424.227C708.625 423.621 708.468 423.152 708.153 422.82C707.841 422.486 707.409 422.318 706.855 422.318C706.471 422.318 706.126 422.399 705.821 422.562C705.52 422.724 705.281 422.961 705.105 423.273C704.933 423.584 704.847 423.962 704.847 424.406ZM714.192 429.179C713.708 429.179 713.269 429.088 712.875 428.906C712.48 428.72 712.167 428.453 711.935 428.105C711.703 427.754 711.587 427.33 711.587 426.832C711.587 426.395 711.673 426.04 711.846 425.768C712.018 425.493 712.248 425.278 712.537 425.122C712.825 424.966 713.143 424.85 713.491 424.774C713.842 424.695 714.195 424.632 714.55 424.585C715.014 424.526 715.39 424.481 715.679 424.451C715.97 424.418 716.182 424.363 716.315 424.287C716.451 424.211 716.519 424.078 716.519 423.889V423.849C716.519 423.359 716.385 422.978 716.116 422.706C715.851 422.434 715.448 422.298 714.908 422.298C714.348 422.298 713.909 422.421 713.591 422.666C713.272 422.911 713.049 423.173 712.919 423.452L711.806 423.054C712.005 422.59 712.27 422.229 712.601 421.97C712.936 421.708 713.301 421.526 713.695 421.423C714.093 421.317 714.484 421.264 714.868 421.264C715.114 421.264 715.395 421.294 715.713 421.354C716.035 421.41 716.345 421.528 716.643 421.707C716.945 421.886 717.195 422.156 717.394 422.517C717.593 422.878 717.692 423.362 717.692 423.969V429H716.519V427.966H716.459C716.38 428.132 716.247 428.309 716.061 428.498C715.876 428.687 715.629 428.848 715.321 428.98C715.012 429.113 714.636 429.179 714.192 429.179ZM714.371 428.125C714.835 428.125 715.226 428.034 715.544 427.852C715.866 427.669 716.108 427.434 716.27 427.146C716.436 426.857 716.519 426.554 716.519 426.236V425.162C716.469 425.222 716.36 425.276 716.191 425.326C716.025 425.372 715.833 425.414 715.614 425.45C715.399 425.483 715.188 425.513 714.983 425.54C714.78 425.563 714.616 425.583 714.49 425.599C714.185 425.639 713.9 425.704 713.635 425.793C713.373 425.879 713.161 426.01 712.999 426.186C712.84 426.358 712.76 426.594 712.76 426.892C712.76 427.3 712.911 427.608 713.213 427.817C713.518 428.022 713.904 428.125 714.371 428.125ZM723.155 421.364V422.358H719.197V421.364H723.155ZM720.351 419.534H721.524V426.812C721.524 427.144 721.572 427.393 721.668 427.558C721.768 427.721 721.894 427.83 722.046 427.886C722.202 427.939 722.366 427.966 722.538 427.966C722.667 427.966 722.773 427.959 722.856 427.946C722.939 427.929 723.006 427.916 723.055 427.906L723.294 428.96C723.214 428.99 723.103 429.02 722.961 429.05C722.818 429.083 722.638 429.099 722.419 429.099C722.087 429.099 721.763 429.028 721.444 428.886C721.13 428.743 720.868 428.526 720.659 428.234C720.453 427.943 720.351 427.575 720.351 427.131V419.534ZM730.192 423.074L729.138 423.372C729.072 423.196 728.974 423.026 728.845 422.86C728.719 422.691 728.546 422.552 728.328 422.442C728.109 422.333 727.829 422.278 727.487 422.278C727.02 422.278 726.631 422.386 726.319 422.602C726.011 422.814 725.857 423.084 725.857 423.412C725.857 423.704 725.963 423.934 726.175 424.103C726.387 424.272 726.718 424.413 727.169 424.526L728.303 424.804C728.985 424.97 729.494 425.223 729.829 425.565C730.164 425.903 730.331 426.339 730.331 426.872C730.331 427.31 730.205 427.701 729.953 428.045C729.705 428.39 729.357 428.662 728.909 428.861C728.462 429.06 727.941 429.159 727.348 429.159C726.569 429.159 725.925 428.99 725.414 428.652C724.904 428.314 724.581 427.82 724.445 427.17L725.558 426.892C725.664 427.303 725.865 427.611 726.16 427.817C726.458 428.022 726.848 428.125 727.328 428.125C727.875 428.125 728.309 428.009 728.631 427.777C728.956 427.542 729.118 427.26 729.118 426.932C729.118 426.667 729.025 426.445 728.84 426.266C728.654 426.083 728.369 425.947 727.985 425.858L726.712 425.56C726.012 425.394 725.499 425.137 725.171 424.789C724.846 424.438 724.683 423.999 724.683 423.472C724.683 423.041 724.804 422.66 725.046 422.328C725.292 421.997 725.625 421.737 726.046 421.548C726.47 421.359 726.95 421.264 727.487 421.264C728.243 421.264 728.836 421.43 729.267 421.761C729.701 422.093 730.01 422.53 730.192 423.074ZM739.356 421.364V422.358H735.398V421.364H739.356ZM736.552 419.534H737.725V426.812C737.725 427.144 737.773 427.393 737.869 427.558C737.969 427.721 738.095 427.83 738.247 427.886C738.403 427.939 738.567 427.966 738.739 427.966C738.869 427.966 738.975 427.959 739.058 427.946C739.14 427.929 739.207 427.916 739.256 427.906L739.495 428.96C739.415 428.99 739.304 429.02 739.162 429.05C739.019 429.083 738.839 429.099 738.62 429.099C738.289 429.099 737.964 429.028 737.646 428.886C737.331 428.743 737.069 428.526 736.86 428.234C736.655 427.943 736.552 427.575 736.552 427.131V419.534ZM744.24 429.159C743.505 429.159 742.87 428.997 742.336 428.672C741.806 428.344 741.397 427.886 741.108 427.3C740.823 426.71 740.681 426.024 740.681 425.241C740.681 424.459 740.823 423.77 741.108 423.173C741.397 422.573 741.798 422.106 742.311 421.771C742.828 421.433 743.432 421.264 744.121 421.264C744.519 421.264 744.912 421.33 745.299 421.463C745.687 421.596 746.04 421.811 746.358 422.109C746.676 422.404 746.93 422.795 747.119 423.283C747.308 423.77 747.402 424.37 747.402 425.082V425.58H741.516V424.565H746.209C746.209 424.134 746.123 423.75 745.951 423.412C745.782 423.074 745.54 422.807 745.225 422.612C744.913 422.416 744.545 422.318 744.121 422.318C743.654 422.318 743.249 422.434 742.908 422.666C742.57 422.895 742.31 423.193 742.127 423.561C741.945 423.929 741.854 424.323 741.854 424.744V425.42C741.854 425.997 741.953 426.486 742.152 426.887C742.355 427.285 742.635 427.588 742.993 427.797C743.35 428.002 743.766 428.105 744.24 428.105C744.549 428.105 744.827 428.062 745.076 427.976C745.328 427.886 745.545 427.754 745.727 427.578C745.909 427.399 746.05 427.177 746.15 426.912L747.283 427.23C747.164 427.615 746.963 427.953 746.681 428.244C746.4 428.533 746.052 428.758 745.637 428.92C745.223 429.08 744.757 429.159 744.24 429.159ZM749.187 429V421.364H750.321V422.517H750.4C750.539 422.139 750.791 421.833 751.156 421.597C751.52 421.362 751.931 421.244 752.389 421.244C752.475 421.244 752.583 421.246 752.712 421.249C752.841 421.253 752.939 421.258 753.005 421.264V422.457C752.966 422.447 752.874 422.433 752.732 422.413C752.593 422.389 752.445 422.378 752.289 422.378C751.918 422.378 751.587 422.456 751.295 422.612C751.007 422.764 750.778 422.976 750.609 423.248C750.443 423.516 750.36 423.823 750.36 424.168V429H749.187ZM754.396 429V421.364H755.53V422.517H755.609C755.748 422.139 756 421.833 756.365 421.597C756.729 421.362 757.14 421.244 757.598 421.244C757.684 421.244 757.792 421.246 757.921 421.249C758.05 421.253 758.148 421.258 758.214 421.264V422.457C758.175 422.447 758.083 422.433 757.941 422.413C757.802 422.389 757.654 422.378 757.498 422.378C757.127 422.378 756.796 422.456 756.504 422.612C756.216 422.764 755.987 422.976 755.818 423.248C755.652 423.516 755.569 423.823 755.569 424.168V429H754.396ZM759.605 429V421.364H760.778V429H759.605ZM760.202 420.091C759.973 420.091 759.776 420.013 759.61 419.857C759.448 419.701 759.366 419.514 759.366 419.295C759.366 419.077 759.448 418.889 759.61 418.734C759.776 418.578 759.973 418.5 760.202 418.5C760.43 418.5 760.626 418.578 760.788 418.734C760.954 418.889 761.037 419.077 761.037 419.295C761.037 419.514 760.954 419.701 760.788 419.857C760.626 420.013 760.43 420.091 760.202 420.091ZM766.328 421.364V422.358H762.211V421.364H766.328ZM763.444 429V420.31C763.444 419.872 763.547 419.508 763.753 419.216C763.958 418.924 764.225 418.705 764.553 418.56C764.881 418.414 765.228 418.341 765.592 418.341C765.881 418.341 766.116 418.364 766.298 418.411C766.48 418.457 766.616 418.5 766.706 418.54L766.368 419.554C766.308 419.534 766.225 419.509 766.119 419.479C766.016 419.45 765.881 419.435 765.711 419.435C765.324 419.435 765.044 419.532 764.871 419.728C764.702 419.924 764.618 420.21 764.618 420.588V429H763.444ZM768.728 431.864C768.529 431.864 768.352 431.847 768.196 431.814C768.04 431.784 767.933 431.754 767.873 431.724L768.171 430.69C768.456 430.763 768.708 430.79 768.927 430.77C769.146 430.75 769.339 430.652 769.509 430.477C769.681 430.304 769.838 430.024 769.981 429.636L770.2 429.04L767.376 421.364H768.648L770.756 427.449H770.836L772.944 421.364H774.217L770.975 430.114C770.829 430.508 770.649 430.835 770.433 431.093C770.218 431.355 769.968 431.549 769.683 431.675C769.401 431.801 769.083 431.864 768.728 431.864ZM775.765 429V421.364H776.939V429H775.765ZM776.362 420.091C776.133 420.091 775.936 420.013 775.77 419.857C775.608 419.701 775.527 419.514 775.527 419.295C775.527 419.077 775.608 418.889 775.77 418.734C775.936 418.578 776.133 418.5 776.362 418.5C776.591 418.5 776.786 418.578 776.949 418.734C777.114 418.889 777.197 419.077 777.197 419.295C777.197 419.514 777.114 419.701 776.949 419.857C776.786 420.013 776.591 420.091 776.362 420.091ZM780.261 424.406V429H779.088V421.364H780.221V422.557H780.32C780.499 422.169 780.771 421.857 781.136 421.622C781.5 421.384 781.971 421.264 782.548 421.264C783.065 421.264 783.517 421.37 783.905 421.582C784.293 421.791 784.594 422.109 784.81 422.537C785.025 422.961 785.133 423.498 785.133 424.148V429H783.96V424.227C783.96 423.627 783.804 423.16 783.492 422.825C783.181 422.487 782.753 422.318 782.21 422.318C781.835 422.318 781.5 422.399 781.205 422.562C780.914 422.724 780.683 422.961 780.514 423.273C780.345 423.584 780.261 423.962 780.261 424.406ZM790.359 432.023C789.793 432.023 789.305 431.95 788.898 431.804C788.49 431.661 788.15 431.473 787.879 431.237C787.61 431.005 787.396 430.757 787.237 430.491L788.172 429.835C788.278 429.974 788.412 430.134 788.575 430.312C788.737 430.495 788.959 430.652 789.241 430.785C789.526 430.921 789.899 430.989 790.359 430.989C790.976 430.989 791.485 430.839 791.886 430.541C792.287 430.243 792.487 429.776 792.487 429.139V427.588H792.388C792.302 427.727 792.179 427.9 792.02 428.105C791.864 428.307 791.639 428.488 791.344 428.647C791.052 428.803 790.658 428.881 790.161 428.881C789.544 428.881 788.991 428.735 788.5 428.443C788.013 428.152 787.627 427.727 787.342 427.17C787.06 426.614 786.919 425.937 786.919 425.142C786.919 424.36 787.057 423.679 787.332 423.099C787.607 422.515 787.99 422.065 788.48 421.746C788.971 421.425 789.537 421.264 790.18 421.264C790.678 421.264 791.072 421.347 791.364 421.513C791.659 421.675 791.884 421.861 792.04 422.07C792.199 422.275 792.321 422.444 792.408 422.577H792.527V421.364H793.661V429.219C793.661 429.875 793.511 430.409 793.213 430.82C792.918 431.234 792.52 431.537 792.02 431.729C791.523 431.925 790.969 432.023 790.359 432.023ZM790.32 427.827C790.79 427.827 791.188 427.719 791.513 427.504C791.838 427.288 792.085 426.978 792.254 426.574C792.423 426.17 792.507 425.686 792.507 425.122C792.507 424.572 792.424 424.086 792.259 423.665C792.093 423.245 791.848 422.915 791.523 422.676C791.198 422.437 790.797 422.318 790.32 422.318C789.822 422.318 789.408 422.444 789.077 422.696C788.749 422.948 788.502 423.286 788.336 423.71C788.174 424.134 788.092 424.605 788.092 425.122C788.092 425.652 788.175 426.121 788.341 426.529C788.51 426.933 788.759 427.252 789.087 427.484C789.418 427.712 789.829 427.827 790.32 427.827Z" fill="black"/>
<rect x="828" y="123" width="40" height="40" rx="10" fill="#FF007A"/>
<path d="M839.011 149V137.364H846.852V139.392H841.472V142.165H846.449V144.193H841.472V146.972H846.875V149H839.011ZM848.365 139.392V137.364H857.922V139.392H854.359V149H851.928V139.392H848.365Z" fill="white"/>
<rect x="828" y="311" width="40" height="40" rx="10" fill="#FF007A"/>
<path d="M839.011 337V325.364H846.852V327.392H841.472V330.165H846.449V332.193H841.472V334.972H846.875V337H839.011ZM848.365 327.392V325.364H857.922V327.392H854.359V337H851.928V327.392H848.365Z" fill="white"/>
<rect x="24" y="194" width="40" height="40" rx="10" fill="#FF007A"/>
<path d="M38.017 220H35.3807L39.3977 208.364H42.5682L46.5795 220H43.9432L41.0284 211.023H40.9375L38.017 220ZM37.8523 215.426H44.0795V217.347H37.8523V215.426ZM50.4403 208.364V220H47.9801V208.364H50.4403Z" fill="white"/>
<rect x="25" y="952" width="854" height="48" rx="9" fill="white" stroke="#E0E0E0" stroke-width="2"/>
<path d="M49.6761 972.912V971.818H57.3125V972.912H54.1108V982H52.8778V972.912H49.6761ZM58.937 984.864C58.7381 984.864 58.5608 984.847 58.405 984.814C58.2492 984.784 58.1415 984.754 58.0819 984.724L58.3801 983.69C58.6652 983.763 58.9171 983.79 59.1358 983.77C59.3546 983.75 59.5485 983.652 59.7175 983.477C59.8899 983.304 60.0473 983.024 60.1898 982.636L60.4086 982.04L57.5847 974.364H58.8574L60.9654 980.449H61.0449L63.1529 974.364H64.4256L61.1841 983.114C61.0383 983.508 60.8577 983.835 60.6422 984.093C60.4268 984.355 60.1766 984.549 59.8915 984.675C59.6098 984.801 59.2916 984.864 58.937 984.864ZM65.9743 984.864V974.364H67.1078V975.577H67.247C67.3332 975.444 67.4525 975.275 67.6049 975.07C67.7607 974.861 67.9828 974.675 68.2711 974.513C68.5628 974.347 68.9572 974.264 69.4544 974.264C70.0974 974.264 70.6641 974.425 71.1547 974.746C71.6452 975.068 72.028 975.524 72.3031 976.114C72.5782 976.704 72.7157 977.4 72.7157 978.202C72.7157 979.01 72.5782 979.711 72.3031 980.305C72.028 980.895 71.6468 981.352 71.1596 981.677C70.6724 981.998 70.1106 982.159 69.4743 982.159C68.9837 982.159 68.591 982.078 68.296 981.915C68.001 981.75 67.774 981.562 67.6149 981.354C67.4558 981.142 67.3332 980.966 67.247 980.827H67.1475V984.864H65.9743ZM67.1277 978.182C67.1277 978.759 67.2122 979.267 67.3812 979.708C67.5502 980.146 67.7972 980.489 68.122 980.737C68.4468 980.982 68.8445 981.105 69.3152 981.105C69.8057 981.105 70.215 980.976 70.5431 980.717C70.8746 980.455 71.1232 980.104 71.2889 979.663C71.4579 979.219 71.5424 978.725 71.5424 978.182C71.5424 977.645 71.4596 977.161 71.2939 976.73C71.1315 976.296 70.8845 975.953 70.5531 975.701C70.225 975.446 69.8123 975.318 69.3152 975.318C68.8379 975.318 68.4368 975.439 68.112 975.681C67.7872 975.92 67.542 976.254 67.3762 976.685C67.2105 977.113 67.1277 977.612 67.1277 978.182ZM77.7072 982.159C76.9714 982.159 76.3367 981.997 75.8031 981.672C75.2728 981.344 74.8635 980.886 74.5751 980.3C74.2901 979.71 74.1475 979.024 74.1475 978.241C74.1475 977.459 74.2901 976.77 74.5751 976.173C74.8635 975.573 75.2645 975.106 75.7782 974.771C76.2953 974.433 76.8985 974.264 77.5879 974.264C77.9856 974.264 78.3784 974.33 78.7662 974.463C79.1539 974.596 79.5069 974.811 79.8251 975.109C80.1433 975.404 80.3968 975.795 80.5858 976.283C80.7747 976.77 80.8691 977.37 80.8691 978.082V978.58H74.9828V977.565H79.676C79.676 977.134 79.5898 976.75 79.4174 976.412C79.2484 976.074 79.0065 975.807 78.6916 975.612C78.38 975.416 78.0121 975.318 77.5879 975.318C77.1206 975.318 76.7162 975.434 76.3748 975.666C76.0368 975.895 75.7766 976.193 75.5943 976.561C75.412 976.929 75.3208 977.323 75.3208 977.744V978.42C75.3208 978.997 75.4203 979.486 75.6191 979.887C75.8213 980.285 76.1014 980.588 76.4593 980.797C76.8173 981.002 77.2333 981.105 77.7072 981.105C78.0154 981.105 78.2939 981.062 78.5424 980.976C78.7943 980.886 79.0114 980.754 79.1937 980.578C79.376 980.399 79.5169 980.177 79.6163 979.912L80.7498 980.23C80.6305 980.615 80.43 980.953 80.1483 981.244C79.8665 981.533 79.5185 981.758 79.1042 981.92C78.6899 982.08 78.2243 982.159 77.7072 982.159ZM87.3471 984.864C87.1483 984.864 86.9709 984.847 86.8152 984.814C86.6594 984.784 86.5517 984.754 86.492 984.724L86.7903 983.69C87.0753 983.763 87.3272 983.79 87.546 983.77C87.7647 983.75 87.9586 983.652 88.1277 983.477C88.3 983.304 88.4574 983.024 88.6 982.636L88.8187 982.04L85.9949 974.364H87.2676L89.3755 980.449H89.4551L91.563 974.364H92.8358L89.5943 983.114C89.4484 983.508 89.2678 983.835 89.0524 984.093C88.8369 984.355 88.5867 984.549 88.3017 984.675C88.0199 984.801 87.7018 984.864 87.3471 984.864ZM97.2132 982.159C96.5239 982.159 95.919 981.995 95.3986 981.667C94.8816 981.339 94.4772 980.88 94.1855 980.29C93.8972 979.7 93.753 979.01 93.753 978.222C93.753 977.426 93.8972 976.732 94.1855 976.138C94.4772 975.545 94.8816 975.085 95.3986 974.756C95.919 974.428 96.5239 974.264 97.2132 974.264C97.9026 974.264 98.5059 974.428 99.0229 974.756C99.5433 975.085 99.9476 975.545 100.236 976.138C100.528 976.732 100.673 977.426 100.673 978.222C100.673 979.01 100.528 979.7 100.236 980.29C99.9476 980.88 99.5433 981.339 99.0229 981.667C98.5059 981.995 97.9026 982.159 97.2132 982.159ZM97.2132 981.105C97.7369 981.105 98.1678 980.971 98.5059 980.702C98.8439 980.434 99.0942 980.081 99.2566 979.643C99.419 979.206 99.5002 978.732 99.5002 978.222C99.5002 977.711 99.419 977.236 99.2566 976.795C99.0942 976.354 98.8439 975.998 98.5059 975.726C98.1678 975.454 97.7369 975.318 97.2132 975.318C96.6896 975.318 96.2587 975.454 95.9206 975.726C95.5826 975.998 95.3323 976.354 95.1699 976.795C95.0075 977.236 94.9263 977.711 94.9263 978.222C94.9263 978.732 95.0075 979.206 95.1699 979.643C95.3323 980.081 95.5826 980.434 95.9206 980.702C96.2587 980.971 96.6896 981.105 97.2132 981.105ZM107.277 978.878V974.364H108.45V982H107.277V980.707H107.197C107.018 981.095 106.74 981.425 106.362 981.697C105.984 981.965 105.507 982.099 104.93 982.099C104.453 982.099 104.029 981.995 103.658 981.786C103.286 981.574 102.995 981.256 102.783 980.832C102.571 980.404 102.464 979.866 102.464 979.216V974.364H103.638V979.136C103.638 979.693 103.794 980.137 104.105 980.469C104.42 980.8 104.821 980.966 105.308 980.966C105.6 980.966 105.897 980.891 106.198 980.742C106.503 980.593 106.758 980.364 106.964 980.056C107.173 979.748 107.277 979.355 107.277 978.878ZM110.599 982V974.364H111.733V975.517H111.812C111.952 975.139 112.203 974.833 112.568 974.597C112.933 974.362 113.344 974.244 113.801 974.244C113.887 974.244 113.995 974.246 114.124 974.249C114.253 974.253 114.351 974.258 114.417 974.264V975.457C114.378 975.447 114.287 975.433 114.144 975.413C114.005 975.389 113.857 975.378 113.702 975.378C113.33 975.378 112.999 975.456 112.707 975.612C112.419 975.764 112.19 975.976 112.021 976.248C111.855 976.516 111.773 976.823 111.773 977.168V982H110.599ZM119.746 984.864V974.364H120.879V975.577H121.018C121.105 975.444 121.224 975.275 121.376 975.07C121.532 974.861 121.754 974.675 122.043 974.513C122.334 974.347 122.729 974.264 123.226 974.264C123.869 974.264 124.436 974.425 124.926 974.746C125.417 975.068 125.799 975.524 126.075 976.114C126.35 976.704 126.487 977.4 126.487 978.202C126.487 979.01 126.35 979.711 126.075 980.305C125.799 980.895 125.418 981.352 124.931 981.677C124.444 981.998 123.882 982.159 123.246 982.159C122.755 982.159 122.362 982.078 122.067 981.915C121.772 981.75 121.545 981.562 121.386 981.354C121.227 981.142 121.105 980.966 121.018 980.827H120.919V984.864H119.746ZM120.899 978.182C120.899 978.759 120.984 979.267 121.153 979.708C121.322 980.146 121.569 980.489 121.893 980.737C122.218 980.982 122.616 981.105 123.087 981.105C123.577 981.105 123.987 980.976 124.315 980.717C124.646 980.455 124.895 980.104 125.06 979.663C125.229 979.219 125.314 978.725 125.314 978.182C125.314 977.645 125.231 977.161 125.065 976.73C124.903 976.296 124.656 975.953 124.325 975.701C123.996 975.446 123.584 975.318 123.087 975.318C122.609 975.318 122.208 975.439 121.884 975.681C121.559 975.92 121.313 976.254 121.148 976.685C120.982 977.113 120.899 977.612 120.899 978.182ZM128.277 982V974.364H129.411V975.517H129.49C129.629 975.139 129.881 974.833 130.246 974.597C130.61 974.362 131.021 974.244 131.479 974.244C131.565 974.244 131.673 974.246 131.802 974.249C131.931 974.253 132.029 974.258 132.095 974.264V975.457C132.055 975.447 131.964 975.433 131.822 975.413C131.683 975.389 131.535 975.378 131.379 975.378C131.008 975.378 130.677 975.456 130.385 975.612C130.097 975.764 129.868 975.976 129.699 976.248C129.533 976.516 129.45 976.823 129.45 977.168V982H128.277ZM136.356 982.159C135.666 982.159 135.062 981.995 134.541 981.667C134.024 981.339 133.62 980.88 133.328 980.29C133.04 979.7 132.896 979.01 132.896 978.222C132.896 977.426 133.04 976.732 133.328 976.138C133.62 975.545 134.024 975.085 134.541 974.756C135.062 974.428 135.666 974.264 136.356 974.264C137.045 974.264 137.648 974.428 138.165 974.756C138.686 975.085 139.09 975.545 139.379 976.138C139.67 976.732 139.816 977.426 139.816 978.222C139.816 979.01 139.67 979.7 139.379 980.29C139.09 980.88 138.686 981.339 138.165 981.667C137.648 981.995 137.045 982.159 136.356 982.159ZM136.356 981.105C136.879 981.105 137.31 980.971 137.648 980.702C137.987 980.434 138.237 980.081 138.399 979.643C138.562 979.206 138.643 978.732 138.643 978.222C138.643 977.711 138.562 977.236 138.399 976.795C138.237 976.354 137.987 975.998 137.648 975.726C137.31 975.454 136.879 975.318 136.356 975.318C135.832 975.318 135.401 975.454 135.063 975.726C134.725 975.998 134.475 976.354 134.312 976.795C134.15 977.236 134.069 977.711 134.069 978.222C134.069 978.732 134.15 979.206 134.312 979.643C134.475 980.081 134.725 980.434 135.063 980.702C135.401 980.971 135.832 981.105 136.356 981.105ZM141.607 982V974.364H142.741V975.557H142.84C142.999 975.149 143.256 974.833 143.611 974.607C143.965 974.379 144.391 974.264 144.888 974.264C145.392 974.264 145.811 974.379 146.146 974.607C146.484 974.833 146.748 975.149 146.937 975.557H147.016C147.212 975.162 147.505 974.849 147.896 974.617C148.287 974.382 148.756 974.264 149.303 974.264C149.986 974.264 150.544 974.478 150.979 974.906C151.413 975.33 151.63 975.991 151.63 976.889V982H150.456V976.889C150.456 976.326 150.302 975.923 149.994 975.681C149.686 975.439 149.323 975.318 148.905 975.318C148.368 975.318 147.952 975.481 147.657 975.805C147.363 976.127 147.215 976.535 147.215 977.028V982H146.022V976.77C146.022 976.336 145.881 975.986 145.599 975.721C145.318 975.452 144.955 975.318 144.51 975.318C144.206 975.318 143.921 975.399 143.655 975.562C143.394 975.724 143.181 975.95 143.019 976.238C142.86 976.523 142.78 976.853 142.78 977.227V982H141.607ZM153.775 984.864V974.364H154.909V975.577H155.048C155.134 975.444 155.253 975.275 155.406 975.07C155.561 974.861 155.784 974.675 156.072 974.513C156.364 974.347 156.758 974.264 157.255 974.264C157.898 974.264 158.465 974.425 158.955 974.746C159.446 975.068 159.829 975.524 160.104 976.114C160.379 976.704 160.517 977.4 160.517 978.202C160.517 979.01 160.379 979.711 160.104 980.305C159.829 980.895 159.448 981.352 158.96 981.677C158.473 981.998 157.911 982.159 157.275 982.159C156.785 982.159 156.392 982.078 156.097 981.915C155.802 981.75 155.575 981.562 155.416 981.354C155.257 981.142 155.134 980.966 155.048 980.827H154.948V984.864H153.775ZM154.928 978.182C154.928 978.759 155.013 979.267 155.182 979.708C155.351 980.146 155.598 980.489 155.923 980.737C156.248 980.982 156.645 981.105 157.116 981.105C157.606 981.105 158.016 980.976 158.344 980.717C158.675 980.455 158.924 980.104 159.09 979.663C159.259 979.219 159.343 978.725 159.343 978.182C159.343 977.645 159.26 977.161 159.095 976.73C158.932 976.296 158.685 975.953 158.354 975.701C158.026 975.446 157.613 975.318 157.116 975.318C156.639 975.318 156.238 975.439 155.913 975.681C155.588 975.92 155.343 976.254 155.177 976.685C155.011 977.113 154.928 977.612 154.928 978.182ZM165.627 974.364V975.358H161.67V974.364H165.627ZM162.823 972.534H163.997V979.812C163.997 980.144 164.045 980.393 164.141 980.558C164.24 980.721 164.366 980.83 164.519 980.886C164.674 980.939 164.838 980.966 165.011 980.966C165.14 980.966 165.246 980.959 165.329 980.946C165.412 980.929 165.478 980.916 165.528 980.906L165.767 981.96C165.687 981.99 165.576 982.02 165.433 982.05C165.291 982.083 165.11 982.099 164.892 982.099C164.56 982.099 164.235 982.028 163.917 981.886C163.602 981.743 163.34 981.526 163.132 981.234C162.926 980.943 162.823 980.575 162.823 980.131V972.534ZM172.503 977.406V982H171.33V971.818H172.503V975.557H172.602C172.781 975.162 173.05 974.849 173.408 974.617C173.769 974.382 174.25 974.264 174.85 974.264C175.37 974.264 175.826 974.369 176.217 974.577C176.608 974.783 176.911 975.099 177.127 975.527C177.345 975.951 177.455 976.491 177.455 977.148V982H176.281V977.227C176.281 976.621 176.124 976.152 175.809 975.82C175.498 975.486 175.065 975.318 174.512 975.318C174.127 975.318 173.782 975.399 173.477 975.562C173.176 975.724 172.937 975.961 172.762 976.273C172.589 976.584 172.503 976.962 172.503 977.406ZM182.803 982.159C182.067 982.159 181.432 981.997 180.899 981.672C180.368 981.344 179.959 980.886 179.671 980.3C179.386 979.71 179.243 979.024 179.243 978.241C179.243 977.459 179.386 976.77 179.671 976.173C179.959 975.573 180.36 975.106 180.874 974.771C181.391 974.433 181.994 974.264 182.684 974.264C183.081 974.264 183.474 974.33 183.862 974.463C184.25 974.596 184.603 974.811 184.921 975.109C185.239 975.404 185.493 975.795 185.681 976.283C185.87 976.77 185.965 977.37 185.965 978.082V978.58H180.078V977.565H184.772C184.772 977.134 184.685 976.75 184.513 976.412C184.344 976.074 184.102 975.807 183.787 975.612C183.476 975.416 183.108 975.318 182.684 975.318C182.216 975.318 181.812 975.434 181.471 975.666C181.132 975.895 180.872 976.193 180.69 976.561C180.508 976.929 180.417 977.323 180.417 977.744V978.42C180.417 978.997 180.516 979.486 180.715 979.887C180.917 980.285 181.197 980.588 181.555 980.797C181.913 981.002 182.329 981.105 182.803 981.105C183.111 981.105 183.39 981.062 183.638 980.976C183.89 980.886 184.107 980.754 184.289 980.578C184.472 980.399 184.613 980.177 184.712 979.912L185.846 980.23C185.726 980.615 185.526 980.953 185.244 981.244C184.962 981.533 184.614 981.758 184.2 981.92C183.786 982.08 183.32 982.159 182.803 982.159ZM187.75 982V974.364H188.883V975.517H188.963C189.102 975.139 189.354 974.833 189.718 974.597C190.083 974.362 190.494 974.244 190.951 974.244C191.038 974.244 191.145 974.246 191.275 974.249C191.404 974.253 191.502 974.258 191.568 974.264V975.457C191.528 975.447 191.437 975.433 191.294 975.413C191.155 975.389 191.008 975.378 190.852 975.378C190.481 975.378 190.149 975.456 189.858 975.612C189.569 975.764 189.341 975.976 189.172 976.248C189.006 976.516 188.923 976.823 188.923 977.168V982H187.75ZM195.928 982.159C195.192 982.159 194.557 981.997 194.024 981.672C193.493 981.344 193.084 980.886 192.796 980.3C192.511 979.71 192.368 979.024 192.368 978.241C192.368 977.459 192.511 976.77 192.796 976.173C193.084 975.573 193.485 975.106 193.999 974.771C194.516 974.433 195.119 974.264 195.809 974.264C196.206 974.264 196.599 974.33 196.987 974.463C197.375 974.596 197.728 974.811 198.046 975.109C198.364 975.404 198.618 975.795 198.806 976.283C198.995 976.77 199.09 977.37 199.09 978.082V978.58H193.203V977.565H197.897C197.897 977.134 197.81 976.75 197.638 976.412C197.469 976.074 197.227 975.807 196.912 975.612C196.601 975.416 196.233 975.318 195.809 975.318C195.341 975.318 194.937 975.434 194.596 975.666C194.257 975.895 193.997 976.193 193.815 976.561C193.633 976.929 193.542 977.323 193.542 977.744V978.42C193.542 978.997 193.641 979.486 193.84 979.887C194.042 980.285 194.322 980.588 194.68 980.797C195.038 981.002 195.454 981.105 195.928 981.105C196.236 981.105 196.515 981.062 196.763 980.976C197.015 980.886 197.232 980.754 197.414 980.578C197.597 980.399 197.738 980.177 197.837 979.912L198.971 980.23C198.851 980.615 198.651 980.953 198.369 981.244C198.087 981.533 197.739 981.758 197.325 981.92C196.911 982.08 196.445 982.159 195.928 982.159ZM201.73 982.08C201.484 982.08 201.274 981.992 201.098 981.816C200.923 981.64 200.835 981.43 200.835 981.185C200.835 980.939 200.923 980.729 201.098 980.553C201.274 980.378 201.484 980.29 201.73 980.29C201.975 980.29 202.185 980.378 202.361 980.553C202.537 980.729 202.625 980.939 202.625 981.185C202.625 981.347 202.583 981.496 202.5 981.632C202.421 981.768 202.313 981.877 202.177 981.96C202.045 982.04 201.895 982.08 201.73 982.08ZM205.585 982.08C205.34 982.08 205.129 981.992 204.954 981.816C204.778 981.64 204.69 981.43 204.69 981.185C204.69 980.939 204.778 980.729 204.954 980.553C205.129 980.378 205.34 980.29 205.585 980.29C205.83 980.29 206.041 980.378 206.217 980.553C206.392 980.729 206.48 980.939 206.48 981.185C206.48 981.347 206.439 981.496 206.356 981.632C206.276 981.768 206.169 981.877 206.033 981.96C205.9 982.04 205.751 982.08 205.585 982.08ZM209.441 982.08C209.195 982.08 208.985 981.992 208.809 981.816C208.634 981.64 208.546 981.43 208.546 981.185C208.546 980.939 208.634 980.729 208.809 980.553C208.985 980.378 209.195 980.29 209.441 980.29C209.686 980.29 209.896 980.378 210.072 980.553C210.248 980.729 210.336 980.939 210.336 981.185C210.336 981.347 210.294 981.496 210.211 981.632C210.132 981.768 210.024 981.877 209.888 981.96C209.756 982.04 209.606 982.08 209.441 982.08Z" fill="#9F9F9F"/>
<path d="M854.14 968.96L845.11 971.96C839.04 973.99 839.04 977.3 845.11 979.32L847.79 980.21L848.68 982.89C850.7 988.96 854.02 988.96 856.04 982.89L859.05 973.87C860.39 969.82 858.19 967.61 854.14 968.96ZM854.46 974.34L850.66 978.16C850.51 978.31 850.32 978.38 850.13 978.38C849.94 978.38 849.75 978.31 849.6 978.16C849.461 978.019 849.382 977.828 849.382 977.63C849.382 977.432 849.461 977.241 849.6 977.1L853.4 973.28C853.69 972.99 854.17 972.99 854.46 973.28C854.75 973.57 854.75 974.05 854.46 974.34Z" fill="#FF007A"/>
</g>
<defs>
<clipPath id="clip0_1_123">
<rect width="897" height="1024" fill="white"/>
</clipPath>
</defs>
</svg>
